<svg xmlns="http://www.w3.org/2000/svg" width="242.502" height="242.497" viewBox="0 0 242.502 242.497">
  <path id="Caminho_129" data-name="Caminho 129" d="M237.926,142.453,132.076,36.575a15.627,15.627,0,0,0-22.09,0L87.976,58.568l27.888,27.888A18.556,18.556,0,0,1,139.351,110.1l26.881,26.881c18.529-6.387,33.117,16.78,19.2,30.686-14.339,14.339-38-1.554-30.313-20.212L130.03,122.4v65.957c13.695,6.788,12.049,22.653,4.915,29.771a18.574,18.574,0,1,1-20.19-30.313V121.234c-11.259-4.606-13.316-16.639-10.09-24.358L77.172,69.351,4.574,141.96a15.622,15.622,0,0,0,0,22.09L110.457,269.928a15.622,15.622,0,0,0,22.085,0L237.926,164.543a15.622,15.622,0,0,0,0-22.09Z" transform="translate(0.001 -32.003)" fill="#fff"/>
</svg>
