<svg xmlns="http://www.w3.org/2000/svg" width="242.497" height="242.497" viewBox="0 0 242.497 242.497">
  <path id="Caminho_130" data-name="Caminho 130" d="M216.515,32H25.982A25.988,25.988,0,0,0,0,57.982V248.515A25.988,25.988,0,0,0,25.982,274.5H216.515A25.988,25.988,0,0,0,242.5,248.515V57.982A25.988,25.988,0,0,0,216.515,32ZM131.966,221.126c0,23.6-13.857,34.372-34.047,34.372-18.241,0-28.8-9.418-34.209-20.84l18.566-11.2c3.573,6.333,6.82,11.692,14.669,11.692,7.47,0,12.233-2.923,12.233-14.344V143.343h22.788v77.783ZM185.878,255.5c-21.164,0-34.859-10.068-41.517-23.275L162.927,221.5c4.872,7.957,11.259,13.857,22.463,13.857,9.418,0,15.481-4.709,15.481-11.259,0-7.795-6.171-10.555-16.618-15.156l-5.684-2.436c-16.455-6.983-27.335-15.806-27.335-34.372,0-17.1,13.045-30.1,33.343-30.1,14.506,0,24.9,5.034,32.369,18.241l-17.754,11.367c-3.9-6.983-8.119-9.743-14.669-9.743-6.658,0-10.88,4.222-10.88,9.743,0,6.82,4.222,9.581,14.019,13.857l5.684,2.436c19.378,8.282,30.258,16.78,30.258,35.833C223.606,244.239,207.475,255.5,185.878,255.5Z" transform="translate(0 -32)" fill="#fff"/>
</svg>
