<svg xmlns="http://www.w3.org/2000/svg" width="208.584" height="208.625" viewBox="0 0 208.584 208.625">
  <path id="icons8-jquery" d="M130.37,3.041a5.446,5.446,0,0,0-1.482.445c-4.075,2.019-8.7,8.02-9.594,9.2a1.511,1.511,0,0,0-.148.222,42.509,42.509,0,0,0-7.112,23.225,46.826,46.826,0,0,0,3.648,18.447,56.939,56.939,0,0,0,32.06,30.726c.481.166.944.333,1.778.63.074.037.778.259.889.278l.518.185a20.316,20.316,0,0,0,2.241.63,65.973,65.973,0,0,0,10.872,1.3c.593,0,1.185.018,1.778.018,25.985,0,36.06-18.336,39.413-24.447a15.51,15.51,0,0,1,.8-1.371c0-.018,0-.018.018-.037a4.739,4.739,0,1,0-7.834-5.334h-.018c-6.927,10.2-18.781,13.3-35.208,9.223a33.871,33.871,0,0,1-3.741-1.2,45.274,45.274,0,0,1-4.556-1.908,48.3,48.3,0,0,1-8.02-5.019c-14.446-11.2-20.1-34.523-11.65-47.988a4.744,4.744,0,0,0-4.649-7.223ZM88.364,12.487a4.641,4.641,0,0,0-3.056,1.074c-7.168,5.834-14.5,15.391-14.817,15.78a1.221,1.221,0,0,1-.13.2C57.4,48.417,56.415,75.273,67.88,97.961a85.36,85.36,0,0,0,6,10.168l.648.926a44.2,44.2,0,0,0,6.519,8.094c.908,1.037,1.889,2.037,2.852,3l.463.482.389.389c.981.944,1.982,1.908,3.019,2.834h.019a2,2,0,0,0,.278.278c1.167,1.037,2.352,2.019,3.926,3.26l.426.315c1.222.981,2.463,1.907,3.741,2.815l.389.278c.444.3.889.574,1.333.889l.445.3.519.333c.944.63,1.87,1.2,3.185,1.963.852.519,1.76,1.037,2.352,1.334.259.148.537.3,1.185.648l1.445.759c.074.037.407.185.482.222.944.482,1.926.944,2.908,1.389l1.5.667c.981.426,1.981.834,3.2,1.3l.556.2c.037.037.5.2.537.222.889.315,1.8.63,2.7.926l2.074.685a22.827,22.827,0,0,0,3.556.982,114.581,114.581,0,0,0,18.688,1.63c.7,0,1.408-.018,2.093-.018,52.34-1.148,65.953-45.617,66.083-46.061a4.736,4.736,0,0,0-8.464-4c-13.261,19.373-38.339,27.559-63.879,20.817-1.185-.3-2.334-.63-3.759-1.092-.241-.074-.445-.148-.834-.3-.834-.259-1.649-.537-2.575-.889l-1.315-.5c-.76-.3-1.519-.593-2.445-1l-.611-.278c-1.13-.482-2.222-1.019-3.2-1.5l-2.7-1.408c-.611-.3-1.148-.63-1.981-1.13l-.463-.259-.463-.278c-.686-.407-1.371-.834-2-1.278l-.445-.278c-.037-.019-.407-.278-.444-.315-.556-.352-1.093-.7-1.612-1.037-1.148-.815-2.278-1.667-3.593-2.7l-.519-.426c-12.224-9.761-21.262-22.8-25.5-36.783C80.641,51.7,83.567,34.9,92.42,19.6a4.718,4.718,0,0,0-1.037-5.982A4.668,4.668,0,0,0,88.364,12.487ZM36.191,26.711a4.774,4.774,0,0,0-3.186,1.222A104.074,104.074,0,0,0,16.429,47.806C-2.944,76.014.8,119.853,14.1,146.653c.259.556.537,1.092.815,1.63l.185.3a9.383,9.383,0,0,0,.611,1.2,4.572,4.572,0,0,0,.463.852c.222.463.445.871.852,1.575l1.519,2.611c.222.352.445.723.519.852.3.482.611.982.926,1.482l.741,1.185a10.316,10.316,0,0,0,.593.852c.741,1.148,1.482,2.3,2.3,3.39a.807.807,0,0,0,.111.129l.3.407c.667.963,1.352,1.889,1.963,2.649l2.7,3.427c.037.037.333.389.352.426l.389.445c.815,1,1.685,2,2.556,2.963.13.148.259.278.389.426.833.907,1.685,1.815,2.574,2.76l.852.815c.7.741,1.408,1.463,2.148,2.149,0,.018.352.352.352.352l.741.685c.889.852,1.815,1.7,2.519,2.3.037.055.7.63.76.667.871.778,1.741,1.519,2.63,2.241l4.537,3.593c.76.556,1.537,1.111,2.426,1.76.3.222.611.444.926.648a3.194,3.194,0,0,0,.371.278l3.408,2.278c1.241.815,2.482,1.575,4,2.482l.815.463c.944.556,1.908,1.111,2.815,1.593.537.3,1.074.556,1.537.8.648.352,1.352.741,2.426,1.26.092.055.852.426.944.463,1.074.537,2.167,1.037,3.538,1.649,0,.018.445.222.445.222,1.259.537,2.482,1.055,4.093,1.7.259.111.518.2.574.222,1.148.445,2.352.889,3.334,1.241l.685.278c1.315.445,2.612.871,4.279,1.389.277.092.574.185.611.185l.944.3a34.134,34.134,0,0,0,3.538.963,143.069,143.069,0,0,0,25.577,2.445h.018c67.916,0,89.549-54.655,89.771-55.211a4.751,4.751,0,0,0-8.223-4.556c-17.428,22.948-50.3,31.467-87.937,22.818-.908-.222-1.834-.481-2.741-.759l-1.778-.537c-1.2-.37-2.408-.778-3.575-1.185-.018,0-.556-.2-.556-.2-1.037-.352-2.074-.759-2.982-1.111l-1.037-.408c-1.148-.463-2.3-.944-3.408-1.445l-.648-.278c-1-.463-1.963-.907-2.926-1.389-.074-.037-.834-.408-.908-.426-.667-.333-1.333-.685-2.185-1.148L83.79,163.71a13.348,13.348,0,0,0-1.185-.7c-1.167-.722-2.371-1.445-3.556-2.2-.278-.167-.519-.352-.982-.667-.815-.518-1.611-1.055-2.778-1.87l-.463-.333c-.8-.556-1.574-1.148-2.222-1.63-.407-.3-.815-.63-1.482-1.129-.593-.463-1.185-.908-1.741-1.352l-1.037-.852c-.871-.7-1.686-1.445-2.538-2.167a2.38,2.38,0,0,0-.333-.278c-.944-.871-1.908-1.741-3.056-2.834l-3.353-3.334c-.815-.834-1.63-1.686-2.556-2.7-.852-.944-1.667-1.889-2.76-3.186l-2-2.445a12.766,12.766,0,0,0-.815-1.074c-.685-.926-1.371-1.833-2.056-2.8C30.431,106.74,25.615,53.7,39.987,34.268a4.736,4.736,0,0,0-3.8-7.557Z" transform="translate(-3.005 -2.999)" fill="#fff"/>
</svg>
