<svg xmlns="http://www.w3.org/2000/svg" width="296.315" height="155.843" viewBox="0 0 296.315 155.843">
  <path id="Caminho_127" data-name="Caminho 127" d="M148.157,95.478c79.357,0,140.379,33.428,140.379,70.143s-61.069,70.143-140.379,70.143c-79.357,0-140.379-33.428-140.379-70.143S68.847,95.478,148.157,95.478m0-7.778C66.347,87.7,0,122.563,0,165.621s66.347,77.921,148.157,77.921,148.157-34.863,148.157-77.921S229.968,87.7,148.157,87.7Zm-47.133,71.671c-3.658,18.751-16.575,16.807-32.456,16.807l6.343-32.687C92.506,143.49,104.451,141.592,101.025,159.371ZM45.1,209.282H62.087l4.028-20.742c19.029,0,30.835,1.389,41.762-8.843,12.084-11.112,15.232-30.882,6.621-40.79-4.491-5.186-11.714-7.732-21.529-7.732H60.235Zm85.978-98.895h16.9l-4.028,20.742c14.584,0,28.1-1.065,34.632,4.954,6.852,6.3,3.565,14.353-3.843,52.364H157.6c7.13-36.762,8.473-39.817,5.88-42.6-2.5-2.685-8.195-2.13-21.946-2.13l-8.7,44.725h-16.9l15.14-78.06Zm102.738,48.985c-3.7,19.029-16.992,16.807-32.456,16.807L207.7,143.49C225.384,143.49,237.237,141.592,233.811,159.371Zm-55.929,49.91h17.038l4.028-20.742c20,0,31.067,1.157,41.762-8.843,12.084-11.112,15.232-30.882,6.621-40.79-4.491-5.186-11.714-7.732-21.529-7.732H193.068Z" transform="translate(0 -87.7)" fill="#fff"/>
</svg>
