<svg xmlns="http://www.w3.org/2000/svg" width="242.129" height="242.129" viewBox="0 0 242.129 242.129">
  <path id="Caminho_913" data-name="Caminho 913" d="M143.764,22.7A22.7,22.7,0,1,1,121.064,0,22.7,22.7,0,0,1,143.764,22.7Zm0,196.73a22.7,22.7,0,1,1-22.7-22.7A22.705,22.705,0,0,1,143.764,219.429ZM0,121.064a22.7,22.7,0,1,1,22.7,22.7A22.7,22.7,0,0,1,0,121.064Zm242.129,0a22.7,22.7,0,1,1-22.7-22.7A22.705,22.705,0,0,1,242.129,121.064Zm-206.67,85.6a22.709,22.709,0,1,1,32.12,0,22.706,22.706,0,0,1-32.12,0ZM67.579,67.579a22.712,22.712,0,1,1,0-32.12A22.76,22.76,0,0,1,67.579,67.579ZM174.55,174.55a22.706,22.706,0,1,1,0,32.11,22.748,22.748,0,0,1,0-32.11Z" fill="#ffc727"/>
</svg>
