<svg xmlns="http://www.w3.org/2000/svg" width="254.329" height="151.691" viewBox="0 0 254.329 151.691">
  <path id="Caminho_912" data-name="Caminho 912" d="M127.164,0Q76.311,0,63.582,50.564q19.083-25.271,44.5-18.959c9.686,2.4,16.558,9.376,24.257,17.1,12.418,12.584,26.907,27.134,58.408,27.134q50.853,0,63.582-50.564-19.062,25.292-44.5,18.959c-9.686-2.4-16.558-9.376-24.257-17.1C173.112,14.488,158.686,0,127.164,0ZM63.582,75.835Q12.729,75.835,0,126.4q19.1-25.271,44.5-18.959c9.686,2.4,16.558,9.376,24.257,17.117,12.418,12.563,26.907,27.134,58.408,27.134q50.853,0,63.582-50.564-19.062,25.271-44.5,18.917c-9.686-2.4-16.558-9.376-24.257-17.1C109.572,90.364,95.083,75.794,63.582,75.794Z" fill="#fff" fill-rule="evenodd"/>
</svg>
