<svg xmlns="http://www.w3.org/2000/svg" width="1392.973" height="581.548" viewBox="0 0 1392.973 581.548">
  <g id="g10" transform="translate(-848.804 2554.409)">
    <g id="g12" transform="translate(911.818 -2554.409)">
      <g id="g406" transform="translate(236.792 0)">
        <path id="path408" d="M2735.7-1658.653s-10.769-29.779,1.791-50.235,57.747-49.5,45-74.6-45.637-24.179-56.986-9.738-2.352,27.266-10.919,30.107-59.3,11.778-59.288-17.99,27.471-74.75,70.847-81.674,101.372-13.747,121.189,41.379,1.179,80.152-27.743,98.722c-28.944,18.572-10.379,50.008-20.968,56s-60.317,17.76-62.92,8.03" transform="translate(-2655.296 1867.386)" fill="#ff8548"/>
      </g>
      <g id="g410" transform="translate(312.814 228.873)">
        <path id="path412" d="M2798.735-1405.369c.36-23.9,12.2-40.292,33.252-42.977s39.969,5.9,48.72,32.312c6.68,20.143-17.938,41.226-38.988,43.913s-43.286-12.032-42.984-33.249" transform="translate(-2798.732 1448.815)" fill="#ff8548"/>
      </g>
      <g id="g414" transform="translate(226.913 3.393)">
        <path id="path416" d="M2833.271-1751.806c-5.106,13.614-14.981,24.562-32.04,35.51-18.177,11.668-17.751,28.447-17.435,40.691.177,7.334.326,13.13-3.513,15.3-.683.384-1.5.79-2.444,1.2-10.3,4.554-34.949,10.513-49.308,10.506a22.9,22.9,0,0,1-8.291-1.155,3.836,3.836,0,0,1-2.454-2.352v-.022c-.109-.3-10.588-29.886,1.761-49.986,3.859-6.294,10.864-13.443,18.286-21.013,16.693-17.035,35.612-36.344,26.717-53.871a36.12,36.12,0,0,0-29.229-19.85c-1.3-.128-2.593-.193-3.88-.193a38.262,38.262,0,0,0-7.163.67c-7.154,1.362-13.378,4.734-17.2,9.587-6.085,7.734-6.392,15.125-6.61,20.528-.139,3.321-.247,6.008-1.593,7.755a5.2,5.2,0,0,1-2.573,1.731c-3.612,1.19-13.081,3.037-22.838,3.4-8.856.329-21.026-.434-28.685-5.966-4.908-3.542-7.392-8.638-7.392-15.153.01-26.587,22.156-66.238,58.965-78.533a72.02,72.02,0,0,1,11.637-2.858c48.534-7.748,101.9-11.587,120.867,41.192,9.222,25.637,10.656,46.2,4.413,62.873Zm-3.87-63.067c-8.866-24.668-25.865-39.109-51.978-44.145-22.3-4.3-47.584-.92-69.531,2.572a77.822,77.822,0,0,0-7.8,1.686c-39.392,10.785-63.268,52.574-63.278,80.28,0,6.707,2.563,11.96,7.619,15.616,7.8,5.631,20.107,6.415,29.052,6.08,9.816-.364,19.354-2.224,23-3.436a5.571,5.571,0,0,0,3.186-2.423c1.138-1.882,1.247-4.534,1.375-7.584.238-5.617.524-12.608,6.492-20.193,3.424-4.361,8.865-7.5,15.158-9.016a38.118,38.118,0,0,1,12.578-.834,35.574,35.574,0,0,1,28.764,19.544c8.707,17.156-10.063,36.309-26.618,53.2-7.441,7.59-14.467,14.768-18.365,21.119-12.4,20.179-2.087,49.723-1.82,50.471a4.355,4.355,0,0,0,2.79,2.723,23.216,23.216,0,0,0,8.509,1.211c16.209,0,44.735-7.668,52.039-11.8.167-.093.326-.2.484-.307,3.642-2.516,3.5-8.29,3.314-15.51-.306-12.11-.722-28.7,17.168-40.193,17.177-11.02,27.122-22.061,32.277-35.8,6.293-16.807,4.859-37.5-4.412-63.266" transform="translate(-2636.816 1861.04)" fill="#171717"/>
      </g>
      <g id="g418" transform="translate(303.583 227.152)">
        <path id="path420" d="M2858.784-1388.094c-4.731,7.505-12.626,14.048-21.349,18.14a47.27,47.27,0,0,1-13.966,4.184,40.877,40.877,0,0,1-32.039-9.836c-6.969-6.229-10.737-14.442-10.611-23.123.183-11.8,3.219-21.917,8.81-29.273a34.137,34.137,0,0,1,18.864-12.395,41.9,41.9,0,0,1,5.329-1.026,55.762,55.762,0,0,1,7.113-.463c19.739,0,34.265,11.361,41.292,32.58C2864.461-1402.564,2863.276-1395.23,2858.784-1388.094Zm3.991-21.391c-7.952-23.984-25.359-35.532-49.022-32.509-1.176.15-2.323.343-3.45.584a34.993,34.993,0,0,0-21.138,13.058c-5.658,7.455-8.743,17.7-8.925,29.615-.125,8.852,3.711,17.22,10.8,23.557a41.434,41.434,0,0,0,27.394,10.307,40.908,40.908,0,0,0,5.107-.32,49.43,49.43,0,0,0,16.724-5.546c7.769-4.155,14.689-10.206,19-17.049,4.588-7.284,5.8-14.79,3.508-21.7" transform="translate(-2780.237 1442.467)" fill="#171717"/>
      </g>
      <g id="g422" transform="translate(686.399 23.843)">
        <path id="path424" d="M3419.448-1806.031s-2.948-25.3,10.659-39.007,54.331-28.123,48.965-50.128-31.274-27.34-42.826-18.125-6.864,20.917-14.092,21.564-48.6-1.7-43.1-25.01,35.273-53.473,70.512-50.9,81.92,7.915,87.273,54.73-13.824,62.982-39.915,72.193-17.329,37.249-26.718,39.99-50.525,2.793-50.754-5.3" transform="translate(-3378.549 1967.795)" fill="#553e93"/>
      </g>
      <g id="g426" transform="translate(712.893 202.991)">
        <path id="path428" d="M3428.822-1604.954c4.666-18.647,16.97-29.3,33.95-27.527s30.205,11.983,32.2,34.278c1.517,17-21.645,28.979-38.625,27.2s-31.687-17.4-27.524-33.956" transform="translate(-3428.109 1632.673)" fill="#553e93"/>
      </g>
      <g id="g430" transform="translate(677.971 24.728)">
        <path id="path432" d="M3512.954-1860.958c-6.514,9.722-16.273,16.479-31.644,21.911-16.38,5.779-19.145,18.994-21.152,28.646-1.2,5.781-2.163,10.341-5.564,11.34a21.634,21.634,0,0,1-2.151.491c-11.081,2.067-39.875,1.761-46.811-3.286a3.068,3.068,0,0,1-1.49-2.3v-.022a69.453,69.453,0,0,1,.216-14.312c.877-7.3,3.389-17.469,10.372-24.505,4.194-4.219,11-8.525,18.2-13.086,16.212-10.264,34.587-21.9,30.851-37.257a29.078,29.078,0,0,0-19.229-20.935,31.14,31.14,0,0,0-8.737-1.66c-.42-.021-.841-.028-1.262-.028a22.421,22.421,0,0,0-13.977,4.369c-6.189,4.932-7.788,10.671-8.953,14.854-.721,2.58-1.31,4.669-2.692,5.781a4.142,4.142,0,0,1-2.319.877c-6.129.548-30.658-.862-39.875-11.5-3.185-3.678-4.194-8.126-2.993-13.23,4.892-20.8,29.516-47.748,60.571-50.62.012-.007.012,0,.012,0a57.81,57.81,0,0,1,9.687-.1c39.442,2.874,81.939,9.694,87.07,54.527,2.488,21.768-.168,38.134-8.124,50.037Zm8.582-50.094c-2.4-20.949-13.052-35.388-32.57-44.142-16.667-7.477-37.1-9.493-54.921-10.791a59.239,59.239,0,0,0-6.442-.114c-32.821,1.191-59.213,29.5-64.309,51.2-1.25,5.246-.2,9.835,3.089,13.635,9.338,10.763,34.083,12.211,40.26,11.654a4.429,4.429,0,0,0,2.944-1.311c1.237-1.262,1.815-3.315,2.476-5.681,1.213-4.355,2.728-9.779,8.8-14.618a21.847,21.847,0,0,1,13.544-4.27,30.591,30.591,0,0,1,9.986,1.668,28.577,28.577,0,0,1,18.929,20.6c3.666,15.039-14.566,26.579-30.646,36.757-7.222,4.576-14.049,8.9-18.267,13.151-7.079,7.128-9.627,17.406-10.491,24.783a67.787,67.787,0,0,0-.229,14.4,3.458,3.458,0,0,0,1.683,2.644c4.543,3.314,17.5,4.526,29.215,4.526,8.725,0,16.778-.677,20.142-1.661.145-.042.277-.093.42-.149,3.33-1.291,4.279-5.838,5.469-11.532,2-9.545,4.722-22.617,20.851-28.312,15.468-5.467,25.3-12.274,31.872-22.081,8.016-12,10.708-28.475,8.2-50.358" transform="translate(-3362.782 1966.138)" fill="#171717"/>
      </g>
      <g id="g434" transform="translate(704.479 203.885)">
        <path id="path436" d="M3472.613-1580.316c-5.084,5-12.466,8.667-20.045,10.265a38.156,38.156,0,0,1-11.712.712,32.906,32.906,0,0,1-23.285-13.607,24.382,24.382,0,0,1-4.051-20.064c2.311-9.2,6.559-16.564,12.293-21.3a27.378,27.378,0,0,1,17.017-6.215c.278-.015.58-.022.871-.022a32.8,32.8,0,0,1,3.529.186c18.85,1.968,30.213,14.069,31.989,34.063C3479.728-1590.6,3477.441-1585.077,3472.613-1580.316Zm7.069-16.016c-1.81-20.248-13.314-32.494-32.4-34.49-.963-.1-1.9-.157-2.844-.172h0c-15.241-.341-26.86,9.893-31.363,27.876a24.753,24.753,0,0,0,4.121,20.435,33.388,33.388,0,0,0,23.6,13.807,34.017,34.017,0,0,0,3.518.178,41.071,41.071,0,0,0,10.574-1.44,41.045,41.045,0,0,0,18.05-9.85c4.933-4.861,7.266-10.514,6.743-16.345" transform="translate(-3412.368 1631.002)" fill="#171717"/>
      </g>
      <g id="g438" transform="translate(1008.8 213.469)">
        <path id="path440" d="M3752.348-1406.891s-1.094-25.452,13.481-38.118,56.26-24.051,52.53-46.391-29.177-29.565-41.381-21.224-8.381,20.356-15.642,20.469-48.339-5.27-41.144-28.11,39.1-50.736,74.063-45.582,81.114,13.916,83.012,61-18.423,61.793-45.124,69.064c-26.673,7.271-20.005,35.874-29.585,37.92s-50.58-.934-50.211-9.025" transform="translate(-3719.35 1566.469)" fill="#ffba41"/>
      </g>
      <g id="g442" transform="translate(1019.25 390.923)">
        <path id="path444" d="M3748.3-1207.9c6.02-18.247,19.076-27.969,35.877-24.954s29.248,14.17,29.59,36.551c.267,17.071-23.723,27.313-40.511,24.291s-30.314-19.679-24.956-35.888" transform="translate(-3747.115 1233.401)" fill="#ffba41"/>
      </g>
      <g id="g446" transform="translate(1000.316 213.737)">
        <path id="path448" d="M3849.6-1454.79c-7.191,9.216-17.428,15.239-33.149,19.524-16.759,4.561-20.484,17.54-23.2,27.02-1.627,5.673-2.914,10.15-6.377,10.891-.63.135-1.379.249-2.219.343-11.233,1.232-39.868-1.19-46.417-6.728a3.041,3.041,0,0,1-1.311-2.395v-.022a68.837,68.837,0,0,1,1.272-14.262c1.417-7.213,4.659-17.17,12.14-23.67,4.488-3.9,11.587-7.691,19.106-11.711,16.929-9.046,36.1-19.295,33.5-34.9a29.089,29.089,0,0,0-17.638-22.282,30.9,30.9,0,0,0-8.609-2.3h0a27.774,27.774,0,0,0-3.319-.2,21.615,21.615,0,0,0-12.178,3.407c-6.536,4.47-8.544,10.072-10.026,14.162-.906,2.517-1.641,4.549-3.1,5.56a4.119,4.119,0,0,1-2.388.7c-6.168.108-30.512-3.114-38.911-14.4-2.913-3.9-3.6-8.411-2.021-13.406,6.432-20.4,33.005-45.5,64.212-46.039a58.574,58.574,0,0,1,9.606.614c39.106,5.765,81,15.694,82.82,60.777C3862.28-1482.2,3858.422-1466.073,3849.6-1454.79Zm12.257-49.331c-.853-21.069-10.419-36.25-29.238-46.415-16.076-8.681-36.3-12.2-53.976-14.8a59.975,59.975,0,0,0-6.337-.592c-32.862-1.261-61.286,25.061-67.979,46.33-1.627,5.147-.919,9.8,2.074,13.828,8.516,11.425,33.109,14.69,39.3,14.583a4.459,4.459,0,0,0,3.032-1.091c1.325-1.168,2.048-3.171,2.875-5.48,1.548-4.256,3.45-9.551,9.855-13.936a21.917,21.917,0,0,1,13.833-3.264,30.648,30.648,0,0,1,9.828,2.4,28.617,28.617,0,0,1,17.363,21.94c2.545,15.267-16.47,25.437-33.254,34.4-7.546,4.034-14.672,7.84-19.2,11.774-7.584,6.587-10.866,16.65-12.3,23.942a68.373,68.373,0,0,0-1.272,14.349,3.452,3.452,0,0,0,1.483,2.765c5.735,4.861,26.771,7.091,39.894,7.091a50.365,50.365,0,0,0,9.121-.6,3.882,3.882,0,0,0,.42-.114c3.425-1.048,4.7-5.517,6.313-11.1,2.689-9.372,6.364-22.21,22.873-26.708,15.84-4.311,26.142-10.378,33.4-19.679,8.9-11.375,12.782-27.6,11.89-49.616" transform="translate(-3703.478 1565.968)" fill="#171717"/>
      </g>
      <g id="g450" transform="translate(1015.151 391.807)">
        <path id="path452" d="M3790.12-1180.1c-5.438,4.619-13.091,7.741-20.782,8.767a37.907,37.907,0,0,1-11.688-.15,32.915,32.915,0,0,1-22.225-15.289,25.515,25.515,0,0,1-3.719-13.044,23.015,23.015,0,0,1,1.164-7.256c2.986-9.009,7.754-16.044,13.826-20.335a27.2,27.2,0,0,1,15.977-5c.492,0,.986.014,1.493.035a35.4,35.4,0,0,1,4.325.492c18.646,3.35,29.094,16.251,29.4,36.33C3797.976-1189.826,3795.293-1184.488,3790.12-1180.1Zm-21.554-52.232c-.937-.163-1.86-.292-2.783-.385-15.192-1.468-27.525,7.883-33.356,25.5a24.761,24.761,0,0,0,2.606,20.685,33.4,33.4,0,0,0,22.529,15.5,36.133,36.133,0,0,0,6.26.535,43.085,43.085,0,0,0,7.894-.749,41.172,41.172,0,0,0,18.709-8.5c5.275-4.483,8.019-9.95,7.931-15.809-.316-20.321-10.891-33.387-29.789-36.779" transform="translate(-3731.23 1232.864)" fill="#171717"/>
      </g>
      <g id="g454" transform="translate(982.777 58.686)">
        <path id="path456" d="M3952.915-1806.113s-.662-15.391,8.162-23.051,34.012-14.545,31.759-28.055-17.647-17.879-25.014-12.834-5.086,12.31-9.457,12.379c-4.4.067-29.25-3.187-24.892-17s23.651-30.681,44.792-27.564,49.042,8.415,50.19,36.886-11.131,37.368-27.267,41.763-12.115,21.694-17.9,22.932-30.585-.563-30.369-5.456" transform="translate(-3932.962 1902.614)" fill="#ff8548"/>
      </g>
      <g id="g458" transform="translate(991.744 166.36)">
        <path id="path460" d="M3950.453-1685.775c3.644-11.038,11.539-16.917,21.7-15.092s17.677,8.571,17.888,22.1c.159,10.323-14.336,16.515-24.5,14.69s-18.324-11.9-15.089-21.7" transform="translate(-3949.737 1701.196)" fill="#ff8548"/>
      </g>
      <g id="g462" transform="translate(977.652 58.85)">
        <path id="path464" d="M4011.738-1835.079c-4.348,5.573-10.525,9.207-20.04,11.8-10.134,2.759-12.395,10.606-14.037,16.337-.982,3.436-1.749,6.145-3.862,6.593a12.56,12.56,0,0,1-1.319.2c-6.769.754-24.117-.714-28.073-4.063a1.892,1.892,0,0,1-.808-1.455v-.006a41.622,41.622,0,0,1,.78-8.633c.849-4.355,2.813-10.377,7.335-14.312,2.719-2.352,7.012-4.647,11.548-7.078,10.241-5.473,21.842-11.668,20.267-21.1a17.576,17.576,0,0,0-10.672-13.471,18.762,18.762,0,0,0-5.195-1.389,17.534,17.534,0,0,0-2.019-.121,13.047,13.047,0,0,0-7.361,2.059c-3.942,2.7-5.167,6.087-6.056,8.561-.552,1.518-.983,2.744-1.871,3.364a2.5,2.5,0,0,1-1.454.427h-.161c-3.971,0-18.357-1.981-23.376-8.708a8.587,8.587,0,0,1-1.212-8.1c3.89-12.332,19.918-27.478,38.773-27.834a34.161,34.161,0,0,1,5.867.364c23.646,3.485,48.987,9.486,50.078,36.75.539,13.244-1.791,22.995-7.133,29.823Zm7.415-29.83c-.511-12.745-6.3-21.925-17.684-28.07-9.716-5.252-21.936-7.376-32.635-8.952a36.918,36.918,0,0,0-3.9-.355h-.013c-19.837-.713-36.983,15.174-41.035,28.019a8.883,8.883,0,0,0,1.266,8.361c5.153,6.907,20.025,8.881,23.767,8.816a2.621,2.621,0,0,0,1.83-.662,8.05,8.05,0,0,0,1.749-3.314c.93-2.573,2.073-5.774,5.949-8.425a13.253,13.253,0,0,1,8.358-1.968,18.4,18.4,0,0,1,5.948,1.447,17.328,17.328,0,0,1,10.511,13.264c1.534,9.231-9.973,15.383-20.121,20.806-4.562,2.438-8.869,4.74-11.6,7.121-4.589,3.977-6.581,10.072-7.442,14.477a41.642,41.642,0,0,0-.767,8.68,2.086,2.086,0,0,0,.887,1.668c3.473,2.944,16.205,4.291,24.13,4.291a30.277,30.277,0,0,0,5.518-.37c.082-.021.176-.043.258-.071,2.058-.62,2.838-3.33,3.808-6.714,1.628-5.667,3.849-13.43,13.834-16.145,9.582-2.609,15.813-6.28,20.2-11.9,5.383-6.879,7.724-16.694,7.186-30" transform="translate(-3923.376 1902.309)" fill="#66192d"/>
      </g>
      <g id="g466" transform="translate(986.622 166.532)">
        <path id="path468" d="M3975.779-1668.965a25.061,25.061,0,0,1-12.565,5.3,23.1,23.1,0,0,1-7.086-.084,19.916,19.916,0,0,1-13.435-9.245,14.714,14.714,0,0,1-1.542-12.273c1.791-5.453,4.688-9.709,8.351-12.3a16.448,16.448,0,0,1,9.667-3.022c.3,0,.607.007.91.021a20.952,20.952,0,0,1,2.607.3c11.275,2.025,17.6,9.83,17.782,21.968C3980.52-1674.853,3978.9-1671.625,3975.779-1668.965Zm-13.041-31.583c-.566-.1-1.132-.179-1.672-.236-9.194-.891-16.676,4.761-20.192,15.417a15.011,15.011,0,0,0,1.582,12.509,20.165,20.165,0,0,0,13.619,9.373,21.441,21.441,0,0,0,3.793.328,25.777,25.777,0,0,0,4.743-.456,24.811,24.811,0,0,0,11.341-5.139c3.188-2.716,4.847-6.016,4.794-9.558-.184-12.288-6.586-20.192-18.006-22.238" transform="translate(-3940.156 1700.875)" fill="#66192d"/>
      </g>
      <g id="g470" transform="translate(108.638 398.769) rotate(-22)">
        <path id="path472" d="M62.093,120.346s-10.1-14.534-6.26-27.384,24.075-35.026,13.581-46.75-28.122-6.5-32.176,2.933S39.89,64.2,35.68,66.968,5.352,81.851,1.08,65.776,5.165,21.463,27.6,11.492,80.36-10.5,98.978,16.421s12.162,43.11-.8,57.293,1.591,28.494-3.266,33.255S64.893,125.23,62.093,120.346" transform="translate(-79.999 -16.444)" fill="#ffba41"/>
      </g>
      <g id="g474" transform="translate(194.462 542.339)">
        <path id="path476" d="M1.1,30.493C-2.18,17.395,1.9,6.725,13,2.2S35.677-.379,44.292,12.766c6.574,10.026-3.8,25.108-14.9,29.638S4.008,42.12,1.1,30.493" transform="translate(-52.015 -33.45) rotate(-22)" fill="#ffba41"/>
      </g>
      <g id="g478" transform="translate(22.001 415.122) rotate(-22)">
        <path id="path480" d="M114.446,51.81c-.833,8.379-4.735,15.976-12.65,24.645-8.437,9.232-5.7,18.561-3.7,25.372,1.2,4.074,2.148,7.295.321,9.081a14.071,14.071,0,0,1-1.25,1.084,91.3,91.3,0,0,1-13.924,8.324c-7.788,3.868-13.932,5.854-16.857,5.442a2.207,2.207,0,0,1-1.722-.944l-.008-.018c-.1-.146-10.376-15.147-6.458-28.235,1.233-4.1,4.085-9.142,7.106-14.481,6.81-12.023,14.518-25.644,6.93-34.126A20.8,20.8,0,0,0,56.552,40.9a22.669,22.669,0,0,0-3.637.3A22.363,22.363,0,0,0,46.8,43.111a16.451,16.451,0,0,0-8.188,7.925c-2.251,5.23-1.322,9.414-.641,12.471.417,1.882.754,3.4.257,4.576a2.972,2.972,0,0,1-1.178,1.35,57.178,57.178,0,0,1-12.274,5.31c-4.912,1.5-11.834,2.887-16.945.932a10.226,10.226,0,0,1-6.386-7.38c-3.957-14.886,2.54-40.4,21.328-52.753a42.137,42.137,0,0,1,6.057-3.311C54.838.668,84.129-9.43,102.612,17.286,111.586,30.259,115.455,41.549,114.446,51.81ZM102.885,17.092C94.248,4.609,82.582-.936,67.223.128,54.1,1.042,40.449,6.7,28.695,11.927a42.661,42.661,0,0,0-4.142,2.125C4.131,25.96-3,52.882,1.119,68.38a10.54,10.54,0,0,0,6.6,7.6c5.192,1.992,12.195.6,17.154-.921a57.594,57.594,0,0,0,12.354-5.351,3.242,3.242,0,0,0,1.426-1.829c.36-1.223.024-2.718-.36-4.449-.705-3.178-1.587-7.138.624-12.265a15.733,15.733,0,0,1,7.147-7.3,22.107,22.107,0,0,1,6.906-2.343,20.575,20.575,0,0,1,19.012,6.653c7.435,8.3-.224,21.812-6.97,33.739-3.037,5.358-5.9,10.412-7.138,14.554-3.926,13.137,6.242,28.137,6.505,28.513a2.516,2.516,0,0,0,1.963,1.108,6.615,6.615,0,0,0,.873.055c4.519,0,12.691-3.808,16.168-5.527,6.578-3.263,13-7.247,15.263-9.469a2.118,2.118,0,0,0,.217-.242c1.674-1.956.737-5.164-.449-9.177C96.443,95,93.735,85.778,102.044,76.68c7.964-8.724,11.9-16.382,12.73-24.839,1.018-10.34-2.868-21.709-11.889-34.749" fill="#171717"/>
      </g>
      <g id="g482" transform="translate(132.482 500.115) rotate(-22)">
        <path id="path484" d="M44.043,24.28a28.026,28.026,0,0,1-8.737,12.59,25.758,25.758,0,0,1-6.774,4.166,22.371,22.371,0,0,1-18.316-.692A16.56,16.56,0,0,1,1.364,29.624C-.2,23.366-.016,17.588,1.9,12.919a18.661,18.661,0,0,1,8.215-9.195,22.772,22.772,0,0,1,2.683-1.3C24.719-2.431,35.4,1.175,42.884,12.588,45.013,15.839,45.414,19.88,44.043,24.28Zm-.894-11.864C35.578.866,24.757-2.786,12.678,2.134c-.6.246-1.182.509-1.735.789C3.827,6.518,0,13.176,0,21.617A33.206,33.206,0,0,0,1.061,29.7a16.836,16.836,0,0,0,9.018,10.927,22.268,22.268,0,0,0,10.041,2.36,22.605,22.605,0,0,0,8.532-1.657,26.779,26.779,0,0,0,8.025-5.251c.008,0,.008-.006.008-.006a27.876,27.876,0,0,0,7.661-11.7c1.4-4.492.986-8.624-1.2-11.956" transform="translate(0 10.626)" fill="#171717"/>
      </g>
      <g id="g486" transform="translate(1150.271 449.834)">
        <path id="path488" d="M4074.247-885.631s6.191-14.106,17.483-17.1,36.944,1.939,40.866-11.184-7.958-23.82-16.8-22.544-9.973,8.816-13.938,6.942-24.839-15.745-14.851-26.23,34.743-17.114,52.354-5c17.595,12.117,40.319,29.173,28.8,55.239s-26.464,28.632-42.9,25.46c-16.418-3.166-20.425,14.141-26.168,12.7s-27.206-13.984-24.853-18.282" transform="translate(-4074.068 967.252)" fill="#ff8548"/>
      </g>
      <g id="g490" transform="translate(1125.406 543.186)">
        <path id="path492" d="M4031.673-785.013c8.135-8.3,17.806-10.1,26.129-3.977s12.095,15.482,6.317,27.72c-4.4,9.338-20.148,8.511-28.459,2.395s-11.219-18.767-3.986-26.137" transform="translate(-4027.555 792.624)" fill="#ff8548"/>
      </g>
      <g id="g494" transform="translate(1145.523 447.746)">
        <path id="path496" d="M4159.306-909.312c-5.353,12.117-11.755,19.844-19.541,23.622-6.373,3.086-13.529,3.627-23.2,1.76-10.315-1.981-15.795,4.07-19.806,8.49-2.39,2.644-4.277,4.726-6.36,4.2a9.39,9.39,0,0,1-1.272-.4c-6.415-2.3-21.344-11.269-23.425-16.023a1.876,1.876,0,0,1-.071-1.653v-.007a41.186,41.186,0,0,1,4.5-7.4c2.684-3.543,7.1-8.083,12.888-9.623,3.48-.911,8.344-1.083,13.5-1.261,11.6-.407,24.739-.848,27.478-10.014a17.592,17.592,0,0,0-3.632-16.794,18.749,18.749,0,0,0-4.083-3.549,15.065,15.065,0,0,0-6.667-2.438,10.642,10.642,0,0,0-2.572.05c-4.738.683-7.338,3.185-9.225,5.018-1.16,1.125-2.1,2.031-3.159,2.188a2.461,2.461,0,0,1-1.481-.242c-3.355-1.589-15.738-9.822-17.29-18.19a8.556,8.556,0,0,1,2.487-7.819c8.917-9.359,30-15.9,47.075-7.9a34.851,34.851,0,0,1,5.089,2.907C4150.235-950.824,4170.32-934.273,4159.306-909.312Zm-3.243-32.873c-6.415-9-16.451-16.295-25.368-22.424a36.718,36.718,0,0,0-3.314-2.024c-17.5-9.417-39.918-2.7-49.214,7.049a8.844,8.844,0,0,0-2.558,8.054c1.58,8.483,14.048,16.793,17.444,18.4a2.676,2.676,0,0,0,1.943.214,8.054,8.054,0,0,0,3.033-2.208c1.957-1.9,4.4-4.27,9.057-4.932a13.2,13.2,0,0,1,8.358,1.909,18.613,18.613,0,0,1,4.711,3.921,17.293,17.293,0,0,1,3.578,16.53c-2.683,8.973-15.725,9.422-27.228,9.815-5.157.177-10.05.349-13.544,1.276-5.885,1.56-10.343,6.15-13.054,9.721a42.732,42.732,0,0,0-4.529,7.449,2.118,2.118,0,0,0,.071,1.9c2.375,5.439,20.056,15.374,24.878,16.585.1.022.2.036.293.057.042.007.1.014.154.021,2.055.193,3.9-1.845,6.205-4.376,3.957-4.369,9.365-10.356,19.527-8.4,9.743,1.881,16.955,1.332,23.384-1.775,7.841-3.806,14.285-11.582,19.665-23.763,5.159-11.668,4.013-22.453-3.494-32.988" transform="translate(-4065.187 971.158)" fill="#171717"/>
      </g>
      <g id="g498" transform="translate(1120.652 541.153)">
        <path id="path500" d="M4055.245-765.022c-1.479,3.122-4.368,5.311-8.344,6.316a25.045,25.045,0,0,1-13.587-.77,23.1,23.1,0,0,1-6.342-3.214,19.932,19.932,0,0,1-7.982-14.213,14.734,14.734,0,0,1,4.017-11.7c4.032-4.1,8.493-6.637,12.928-7.356a16.543,16.543,0,0,1,10.79,1.959,21.571,21.571,0,0,1,2.244,1.433C4058.2-785.784,4060.431-776.006,4055.245-765.022ZM4049.13-792.8c-.47-.343-.94-.67-1.425-.955a17.366,17.366,0,0,0-7.553-2.6c-5.831-.55-11.905,2.01-17.334,7.555a14.943,14.943,0,0,0-4.1,11.918,20.142,20.142,0,0,0,8.089,14.419,23.859,23.859,0,0,0,7.74,3.656,27.312,27.312,0,0,0,4.744.878,22.876,22.876,0,0,0,7.687-.507c4.059-1.027,7-3.264,8.519-6.465,5.241-11.112,2.983-21.02-6.369-27.9" transform="translate(-4018.662 796.427)" fill="#171717"/>
      </g>
      <g id="g502" transform="translate(1228.094 312.545)">
        <path id="path504" d="M4129.883-1306.834s8.368-12.937,19.993-14.091,36.155,7.8,42.131-4.519-4.056-24.791-12.99-24.941-11.255,7.106-14.883,4.626-22-19.5-10.458-28.257c11.525-8.755,37.022-11.357,52.475,3.409s35.145,35.227,19.622,59.125-30.691,24.041-46.4,18.3-22.424,10.7-27.859,8.361-24.63-18.148-21.629-22.01" transform="translate(-4129.567 1381.134)" fill="#553e93"/>
      </g>
      <g id="g506" transform="translate(1198.716 397.376)">
        <path id="path508" d="M4080.563-1217.218c9.357-6.893,19.191-7.127,26.422.236s9.48,17.22,1.826,28.383c-5.843,8.51-21.247,5.181-28.479-2.189s-8.09-20.307.231-26.429" transform="translate(-4074.612 1222.446)" fill="#553e93"/>
      </g>
      <g id="g510" transform="translate(1223.701 309.757)">
        <path id="path512" d="M4217.577-1316.616c-7.212,11.113-14.751,17.719-23.059,20.207-6.771,2.025-13.914,1.418-23.185-1.966-9.869-3.608-16.229,1.5-20.886,5.216-2.8,2.232-5,3.992-6.957,3.144-.354-.149-.767-.357-1.222-.605-5.962-3.308-19.252-14.526-20.543-19.545a1.823,1.823,0,0,1,.2-1.638v-.014c.085-.129,8.462-12.895,19.877-14.028.737-.071,1.52-.1,2.327-.1a96.578,96.578,0,0,1,11.2,1c11.5,1.455,24.563,3.1,28.722-5.5a17.544,17.544,0,0,0-.909-17.164,18.615,18.615,0,0,0-3.435-4.135,13.878,13.878,0,0,0-8.774-3.842c-.086-.007-.171-.007-.27-.007a15.76,15.76,0,0,0-9.626,3.485c-1.32.927-2.4,1.675-3.479,1.661a2.563,2.563,0,0,1-1.419-.484c-3.068-2.1-13.958-12.206-14.17-20.716a8.611,8.611,0,0,1,3.69-7.321c10.309-7.813,32.174-10.906,47.763-.278h0a35.055,35.055,0,0,1,4.544,3.679C4215.248-1359.044,4232.442-1339.5,4217.577-1316.616Zm2.044-32.973c-4.9-9.91-13.645-18.713-21.454-26.183a35.46,35.46,0,0,0-2.952-2.523c-15.774-12.088-38.973-9.039-49.708-.891a8.86,8.86,0,0,0-3.819,7.546c.214,8.618,11.2,18.821,14.3,20.938a2.7,2.7,0,0,0,1.874.528,7.985,7.985,0,0,0,3.337-1.7c2.243-1.562,5.04-3.5,9.74-3.428a13.218,13.218,0,0,1,7.966,3.229,18.605,18.605,0,0,1,4,4.62,17.242,17.242,0,0,1,.894,16.891c-4.075,8.425-17.024,6.787-28.438,5.347-5.126-.649-9.982-1.262-13.588-.906-11.458,1.14-19.863,13.828-20.076,14.149a2.122,2.122,0,0,0-.241,1.881c1.476,5.753,17.349,18.377,21.921,20.343a2.324,2.324,0,0,0,.27.1,2.788,2.788,0,0,0,.91.144c1.788,0,3.719-1.555,6.062-3.429,4.6-3.684,10.9-8.724,20.63-5.175,9.313,3.407,16.527,4.021,23.357,1.968,8.361-2.5,15.957-9.152,23.213-20.321,6.943-10.691,7.538-21.526,1.8-33.123" transform="translate(-4121.351 1386.35)" fill="#171717"/>
      </g>
      <g id="g514" transform="translate(1194.324 394.637)">
        <path id="path516" d="M4100.62-1193.707c-1.957,2.851-5.15,4.554-9.241,4.918a24.94,24.94,0,0,1-13.3-2.937,23.264,23.264,0,0,1-5.735-4.176,19.889,19.889,0,0,1-5.613-15.3,14.7,14.7,0,0,1,5.844-10.911c4.607-3.407,9.431-5.2,13.917-5.2a16.564,16.564,0,0,1,10.355,3.664,20.754,20.754,0,0,1,1.971,1.76C4106.844-1213.728,4107.483-1203.714,4100.62-1193.707Zm-1.6-28.39c-.407-.405-.8-.791-1.223-1.154a16.987,16.987,0,0,0-11.321-4.32c-4.512,0-9.336,1.739-14.079,5.225a14.977,14.977,0,0,0-5.938,11.12,20.164,20.164,0,0,0,5.694,15.524,23.854,23.854,0,0,0,7.067,4.846,25.722,25.722,0,0,0,10.5,2.417c.572,0,1.128-.022,1.685-.072,4.171-.37,7.434-2.109,9.445-5.025,6.945-10.149,6.292-20.278-1.835-28.561" transform="translate(-4066.396 1227.571)" fill="#171717"/>
      </g>
      <g id="g518" transform="translate(78.503 212.607)">
        <path id="path520" d="M2413.254-1364.9s-8.792-12.651-5.445-23.842,20.947-30.492,11.82-40.7-24.477-5.657-28.016,2.55,2.31,13.113-1.363,15.518-26.4,12.956-30.115-1.039,3.564-38.575,23.081-47.256,45.934-19.142,62.146,4.291,10.591,37.53-.694,49.881,1.388,24.807-2.845,28.949-26.133,15.894-28.567,11.646" transform="translate(-2359.196 1469.676)" fill="#553e93"/>
      </g>
      <g id="g522" transform="translate(137.181 319.07)">
        <path id="path524" d="M2469.9-1244.261c-2.819-11.277.694-20.471,10.257-24.363s19.526-2.231,26.947,9.094c5.655,8.631-3.281,21.625-12.842,25.517s-21.852-.235-24.362-10.249" transform="translate(-2468.96 1270.523)" fill="#553e93"/>
      </g>
      <g id="g526" transform="translate(137.291 292.909)">
        <path id="path528" d="M2447.5-1420.945c-.7,7.034-3.98,13.421-10.626,20.7-7.079,7.762-4.785,15.6-3.107,21.312,1.006,3.429,1.794,6.13.266,7.634a12.946,12.946,0,0,1-1,.87c-.008,0-.016.007-.025.014a76.077,76.077,0,0,1-11.731,7.014c-6.531,3.25-11.7,4.911-14.157,4.576a1.871,1.871,0,0,1-1.447-.8l-.007-.007c-.083-.128-8.707-12.73-5.417-23.721,1.03-3.442,3.422-7.684,5.965-12.167,5.725-10.1,12.2-21.54,5.824-28.667a17.474,17.474,0,0,0-13.177-5.923,18.509,18.509,0,0,0-3.049.25,18.41,18.41,0,0,0-5.143,1.618,13.794,13.794,0,0,0-6.871,6.642c-1.894,4.4-1.113,7.912-.548,10.479.357,1.582.639,2.858.216,3.849a2.505,2.505,0,0,1-.98,1.133,48.147,48.147,0,0,1-10.31,4.455c-4.129,1.262-9.946,2.424-14.233.784a8.571,8.571,0,0,1-5.367-6.2c-3.323-12.5,2.127-33.92,17.9-44.306a36.009,36.009,0,0,1,5.093-2.787c21.851-9.708,46.452-18.2,61.979,4.248C2445.095-1439.056,2448.352-1429.562,2447.5-1420.945Zm-9.713-29.167c-7.252-10.484-17.057-15.146-29.959-14.248-11.025.77-22.482,5.517-32.361,9.908a33.765,33.765,0,0,0-3.431,1.753c-17.19,9.994-23.2,32.645-19.733,45.667a8.846,8.846,0,0,0,5.542,6.393c4.362,1.669,10.252.5,14.415-.777a48.322,48.322,0,0,0,10.377-4.491,2.722,2.722,0,0,0,1.2-1.546,8.094,8.094,0,0,0-.3-3.728c-.591-2.673-1.338-5.995.515-10.306a13.245,13.245,0,0,1,5.99-6.124,18.408,18.408,0,0,1,5.815-1.974,17.3,17.3,0,0,1,15.977,5.58c6.24,6.978-.191,18.333-5.865,28.341-2.542,4.5-4.951,8.753-5.99,12.231-3.3,11.033,5.243,23.636,5.459,23.949a2.111,2.111,0,0,0,1.654.934,6.134,6.134,0,0,0,.747.05c6.506-.006,22.981-9.259,26.4-12.6a1.392,1.392,0,0,0,.176-.2c1.412-1.639.615-4.341-.366-7.712-1.662-5.652-3.938-13.4,3.04-21.04,6.7-7.327,9.987-13.764,10.693-20.863.855-8.689-2.41-18.24-9.987-29.2" transform="translate(-2416.367 1381.469)" fill="#171717"/>
      </g>
      <g id="g530" transform="translate(132.992 321.865)">
        <path id="path532" d="M2500.317-1243.688a24.989,24.989,0,0,1-7.764,11.2,23.036,23.036,0,0,1-6.042,3.713,19.881,19.881,0,0,1-16.292-.612,15.777,15.777,0,0,1-5.076-4.006,13.977,13.977,0,0,1-2.8-5.539c-1.4-5.566-1.24-10.705.474-14.861a16.5,16.5,0,0,1,7.3-8.168,19.74,19.74,0,0,1,2.4-1.168,23.631,23.631,0,0,1,8.921-1.875c6.965,0,13.123,3.706,17.849,10.919C2501.183-1251.2,2501.54-1247.6,2500.317-1243.688Zm-.8-10.556c-6.732-10.279-16.36-13.529-27.111-9.153-.532.214-1.048.45-1.539.706-6.333,3.2-9.745,9.124-9.745,16.636a30,30,0,0,0,.941,7.191,15.014,15.014,0,0,0,8.03,9.722,19.853,19.853,0,0,0,8.946,2.1,20.106,20.106,0,0,0,7.581-1.468,24.1,24.1,0,0,0,7.172-4.7,24.732,24.732,0,0,0,6.791-10.385c1.248-4,.874-7.677-1.065-10.641" transform="translate(-2461.124 1265.294)" fill="#171717"/>
      </g>
      <g id="g534" transform="translate(415.924 158.46)">
        <path id="path536" d="M3013.882-1454.271a31.968,31.968,0,0,1-6.732-1.254.693.693,0,0,0-.872.463.708.708,0,0,0,.468.877,33.757,33.757,0,0,0,7.015,1.311.184.184,0,0,0,.055.007.706.706,0,0,0,.708-.648A.707.707,0,0,0,3013.882-1454.271Zm14.521-.642a.683.683,0,0,0-.827-.519,51.617,51.617,0,0,1-6.82,1.111.707.707,0,0,0-.632.763.692.692,0,0,0,.7.635h.066a51.83,51.83,0,0,0,6.994-1.149.689.689,0,0,0,.523-.841Zm13.193-4.689a.7.7,0,0,0-.927-.35c-2.167.977-4.335,1.846-6.449,2.58a.706.706,0,0,0-.435.891.7.7,0,0,0,.665.471.991.991,0,0,0,.239-.036c2.146-.749,4.346-1.631,6.558-2.63A.7.7,0,0,0,3041.6-1459.6Zm-40.362,1.034a7.791,7.791,0,0,1-2.755-5.624.688.688,0,0,0-.719-.669.713.713,0,0,0-.676.733,9.085,9.085,0,0,0,3.225,6.608.669.669,0,0,0,.458.177.715.715,0,0,0,.534-.235A.7.7,0,0,0,3001.233-1458.568Zm52.65-7.784a.7.7,0,0,0-.97-.221c-2,1.255-4.02,2.445-6.013,3.521a.7.7,0,0,0-.283.949.709.709,0,0,0,.621.37.736.736,0,0,0,.337-.085c2-1.1,4.053-2.295,6.079-3.571a.7.7,0,0,0,.228-.962Zm11.383-8.176a.7.7,0,0,0-.991-.115c-1.83,1.454-3.7,2.866-5.566,4.192a.706.706,0,0,0-.175.976.714.714,0,0,0,.578.292.7.7,0,0,0,.4-.128c1.884-1.341,3.78-2.766,5.643-4.235A.708.708,0,0,0,3065.267-1474.528Zm-61.7-2.815a.7.7,0,0,0-.98.121,32.86,32.86,0,0,0-3.824,6.043.71.71,0,0,0,.338.935.732.732,0,0,0,.295.063.7.7,0,0,0,.631-.4,31.912,31.912,0,0,1,3.66-5.78A.7.7,0,0,0,3003.565-1477.343Zm72.2-6.479a.7.7,0,0,0-.992-.021c-1.667,1.61-3.4,3.2-5.142,4.726a.7.7,0,0,0-.065.99.721.721,0,0,0,.534.242.668.668,0,0,0,.457-.177c1.754-1.54,3.508-3.143,5.2-4.768A.7.7,0,0,0,3075.769-1483.822Zm-62.258-3.378a.7.7,0,0,0-.992-.086c-1.9,1.59-3.649,3.194-5.218,4.769a.684.684,0,0,0,0,.99.7.7,0,0,0,.491.207.739.739,0,0,0,.5-.207c1.547-1.547,3.269-3.122,5.131-4.682A.707.707,0,0,0,3013.511-1487.2Zm71.811-6.885a.7.7,0,0,0-.991.085c-1.481,1.746-3.05,3.5-4.652,5.2a.693.693,0,0,0,.033.99.684.684,0,0,0,.479.193.728.728,0,0,0,.513-.221c1.612-1.718,3.192-3.485,4.706-5.253a.716.716,0,0,0-.087-.99Zm-60.471-1.355a.7.7,0,0,0-.969-.206c-2.015,1.3-3.965,2.658-5.817,4.006a.7.7,0,0,0-.141.976.692.692,0,0,0,.565.292.76.76,0,0,0,.415-.135c1.819-1.34,3.747-2.672,5.741-3.963A.714.714,0,0,0,3024.851-1495.44Zm142.36.022c-1.624-1.718-3.334-3.371-5.077-4.918a.688.688,0,0,0-.98.057.693.693,0,0,0,.054.99c1.71,1.518,3.387,3.144,4.978,4.832a.72.72,0,0,0,.513.213.71.71,0,0,0,.479-.184A.7.7,0,0,0,3167.211-1495.419Zm-130.224-7.035a.707.707,0,0,0-.949-.3c-2.091,1.1-4.172,2.245-6.165,3.407a.7.7,0,0,0-.251.962.7.7,0,0,0,.61.35.687.687,0,0,0,.348-.1c1.983-1.155,4.031-2.287,6.112-3.378A.7.7,0,0,0,3036.987-1502.453Zm56.789-2.823a.712.712,0,0,0-.98.193c-1.274,1.881-2.647,3.784-4.074,5.652a.691.691,0,0,0,.13.983.656.656,0,0,0,.426.143.711.711,0,0,0,.555-.27c1.449-1.9,2.833-3.82,4.129-5.724A.709.709,0,0,0,3093.776-1505.276Zm62.868.493c-1.885-1.4-3.857-2.723-5.872-3.935a.7.7,0,0,0-.958.235.7.7,0,0,0,.229.962c1.983,1.2,3.911,2.495,5.773,3.863a.678.678,0,0,0,.414.136.708.708,0,0,0,.567-.285A.693.693,0,0,0,3156.644-1504.784Zm-106.944-3.585a.7.7,0,0,0-.916-.372c-2.156.905-4.325,1.868-6.437,2.858a.705.705,0,0,0-.338.934.7.7,0,0,0,.632.4.745.745,0,0,0,.3-.064c2.092-.984,4.238-1.939,6.384-2.837A.707.707,0,0,0,3049.7-1508.369Zm51.049-9.06a.708.708,0,0,0-.949.32c-.97,2.01-2.081,4.078-3.279,6.13a.7.7,0,0,0,.25.963.688.688,0,0,0,.349.092.708.708,0,0,0,.609-.342c1.22-2.089,2.342-4.184,3.333-6.229a.687.687,0,0,0-.315-.934Zm-37.878,4.241a.7.7,0,0,0-.883-.45c-2.222.714-4.455,1.491-6.655,2.31a.7.7,0,0,0-.414.9.686.686,0,0,0,.653.455.779.779,0,0,0,.25-.042c2.179-.813,4.39-1.582,6.59-2.288A.713.713,0,0,0,3062.871-1513.188Zm81.692,1.091c-2.092-1.02-4.271-1.961-6.482-2.8a.7.7,0,0,0-.9.407.708.708,0,0,0,.414.9c2.157.821,4.3,1.746,6.362,2.752a.677.677,0,0,0,.305.071.7.7,0,0,0,.631-.392A.71.71,0,0,0,3144.563-1512.1Zm-68.174-4.74a.694.694,0,0,0-.839-.529c-2.254.507-4.552,1.084-6.829,1.711a.689.689,0,0,0-.48.863.7.7,0,0,0,.676.513.591.591,0,0,0,.185-.029c2.245-.613,4.522-1.183,6.754-1.7A.7.7,0,0,0,3076.389-1516.836Zm54.992-.293c-2.223-.641-4.532-1.2-6.853-1.674a.7.7,0,0,0-.827.549.708.708,0,0,0,.544.827c2.288.463,4.553,1.012,6.754,1.646a.942.942,0,0,0,.2.021.711.711,0,0,0,.675-.506A.7.7,0,0,0,3131.381-1517.13Zm-41.952-2.672c-2.3.286-4.641.634-6.972,1.048a.689.689,0,0,0-.566.812.693.693,0,0,0,.686.578.566.566,0,0,0,.12-.014c2.31-.407,4.629-.749,6.9-1.033a.708.708,0,0,0,.621-.777.709.709,0,0,0-.785-.613Zm28.138-.143c-2.3-.286-4.663-.5-7.026-.634a.719.719,0,0,0-.752.662.713.713,0,0,0,.665.734c2.342.135,4.674.342,6.928.628a.515.515,0,0,0,.1.006.7.7,0,0,0,.686-.612A.694.694,0,0,0,3117.568-1519.945Zm-14.075-.8h-.01c-2.309.022-4.673.107-7.037.272a.688.688,0,0,0-.653.749.7.7,0,0,0,.7.647h.055c2.332-.157,4.674-.249,6.961-.263a.7.7,0,0,0,.686-.712A.7.7,0,0,0,3103.493-1520.743Zm1.9-9.878a.689.689,0,0,0-.838.519,51.923,51.923,0,0,1-2.016,6.615.712.712,0,0,0,.415.905.78.78,0,0,0,.251.042.7.7,0,0,0,.653-.455,56.826,56.826,0,0,0,2.059-6.785A.7.7,0,0,0,3105.389-1530.622Zm1.122-13.344a.7.7,0,0,0-.817-.556.693.693,0,0,0-.556.819,27.12,27.12,0,0,1,.458,5.076c0,.563-.011,1.147-.044,1.725a.7.7,0,0,0,.654.742h.043a.7.7,0,0,0,.7-.663c.033-.606.055-1.211.055-1.8A29.006,29.006,0,0,0,3106.511-1543.965Zm-2.419-6.778a22.071,22.071,0,0,0-4.477-5.637.7.7,0,0,0-.992.042.7.7,0,0,0,.045.99,20.733,20.733,0,0,1,4.2,5.282.69.69,0,0,0,.61.363.671.671,0,0,0,.338-.093A.7.7,0,0,0,3104.092-1550.744Zm-10.392-9.693-.359-.179c-1.962-.984-4.009-1.911-6.069-2.758a.71.71,0,0,0-.915.384.689.689,0,0,0,.392.913c2.016.834,4.03,1.746,5.97,2.716l.337.171a.667.667,0,0,0,.327.078.705.705,0,0,0,.622-.378A.7.7,0,0,0,3093.7-1560.437Zm-95.341-2.132a.692.692,0,0,0-.883-.448c-4.183,1.361-6.558,2.345-6.656,2.38a.712.712,0,0,0-.381.921.7.7,0,0,0,.654.435.685.685,0,0,0,.262-.058c.021-.006,2.429-1,6.558-2.344a.7.7,0,0,0,.447-.884Zm13.53-3.684a.7.7,0,0,0-.839-.529c-2.276.535-4.575,1.12-6.819,1.74a.7.7,0,0,0-.49.862.709.709,0,0,0,.676.513.537.537,0,0,0,.185-.028c2.234-.613,4.5-1.191,6.765-1.718A.691.691,0,0,0,3011.888-1566.253Zm68.761.455c-2.211-.72-4.488-1.368-6.787-1.938a.706.706,0,0,0-.85.513.709.709,0,0,0,.512.849c2.265.556,4.521,1.2,6.689,1.909a.793.793,0,0,0,.218.028.688.688,0,0,0,.664-.484A.691.691,0,0,0,3080.649-1565.8Zm-55.765-3.591c-2.3.334-4.63.72-6.94,1.161a.693.693,0,0,0-.566.821.7.7,0,0,0,.686.569.768.768,0,0,0,.131-.014c2.3-.435,4.619-.819,6.885-1.147a.7.7,0,0,0,.6-.8A.7.7,0,0,0,3024.884-1569.389Zm42.093.2c-2.287-.406-4.63-.741-6.982-1.012a.7.7,0,0,0-.774.62.7.7,0,0,0,.621.777c2.32.257,4.641.591,6.885.991a.727.727,0,0,0,.12.014.7.7,0,0,0,.687-.584A.688.688,0,0,0,3066.978-1569.19Zm-28.084-1.589c-2.31.121-4.673.3-7.026.535a.7.7,0,0,0-.621.769.7.7,0,0,0,.7.628h.064c2.331-.235,4.673-.414,6.961-.527a.7.7,0,0,0,.664-.735A.705.705,0,0,0,3038.893-1570.779Zm14.075,0c-2.266-.121-4.6-.185-6.917-.185h-.12a.7.7,0,0,0-.7.7.7.7,0,0,0,.7.706h.12c2.31,0,4.608.056,6.842.178h.042a.7.7,0,0,0,.7-.662.7.7,0,0,0-.665-.734" transform="translate(-2990.387 1570.965)" fill="#656565"/>
      </g>
      <g id="g538" transform="translate(132.136 43.666)">
        <path id="path540" d="M2672.123-1479.355c-2.361-.014-4.71-.057-6.988-.129a.7.7,0,0,0-.721.678.694.694,0,0,0,.67.726c2.3.071,4.658.115,7.028.129a.713.713,0,0,0,.711-.7A.707.707,0,0,0,2672.123-1479.355Zm14-.249c-2.36.093-4.719.164-7.008.206a.706.706,0,0,0-.69.713.7.7,0,0,0,.7.685h.01c2.308-.042,4.678-.115,7.038-.206a.707.707,0,0,0,.68-.728.706.706,0,0,0-.732-.67Zm-27.977-.2c-2.35-.142-4.689-.321-6.956-.528a.692.692,0,0,0-.763.635.7.7,0,0,0,.629.762c2.288.207,4.647.385,7.007.535h.042a.7.7,0,0,0,.7-.663A.7.7,0,0,0,2658.149-1479.8Zm41.96-.656c-2.339.193-4.689.357-6.986.5a.7.7,0,0,0-.659.741.7.7,0,0,0,.7.657h.041c2.309-.144,4.668-.307,7.018-.5a.687.687,0,0,0,.638-.749A.7.7,0,0,0,2700.11-1480.46Zm13.922-1.354c-2.319.264-4.658.513-6.956.741a.7.7,0,0,0-.629.763.714.714,0,0,0,.7.635.179.179,0,0,0,.061-.007c2.309-.221,4.648-.471,6.978-.735a.7.7,0,0,0,.617-.777A.7.7,0,0,0,2714.032-1481.813Zm-69.785.719c-2.339-.3-4.658-.641-6.9-1.019a.7.7,0,0,0-.8.571.686.686,0,0,0,.578.8c2.257.385,4.6.727,6.955,1.033.021,0,.062.008.093.008a.7.7,0,0,0,.691-.613A.7.7,0,0,0,2644.247-1481.094Zm83.676-2.515c-2.339.335-4.668.655-6.946.948a.7.7,0,0,0-.6.784.691.691,0,0,0,.691.612.438.438,0,0,0,.092-.007c2.278-.292,4.616-.613,6.956-.955a.69.69,0,0,0,.587-.79A.685.685,0,0,0,2727.923-1483.61Zm-97.432.185c-2.309-.492-4.586-1.041-6.781-1.625a.7.7,0,0,0-.855.5.706.706,0,0,0,.494.855c2.205.592,4.524,1.14,6.853,1.64a.543.543,0,0,0,.144.021.716.716,0,0,0,.691-.555A.715.715,0,0,0,2630.491-1483.425Zm111.262-2.381c-2.309.393-4.637.777-6.915,1.141a.7.7,0,0,0-.577.805.7.7,0,0,0,.69.592.593.593,0,0,0,.114-.015c2.277-.356,4.606-.749,6.925-1.148a.689.689,0,0,0,.567-.8.686.686,0,0,0-.8-.571Zm13.777-2.552c-2.288.457-4.605.9-6.883,1.319a.707.707,0,0,0-.567.812.713.713,0,0,0,.7.578.733.733,0,0,0,.124-.014c2.277-.421,4.6-.862,6.894-1.319a.7.7,0,0,0,.557-.819A.714.714,0,0,0,2755.53-1488.357Zm-138.5,1.327c-2.246-.735-4.441-1.533-6.543-2.367a.691.691,0,0,0-.906.385.69.69,0,0,0,.391.912c2.123.848,4.349,1.661,6.615,2.4a.673.673,0,0,0,.227.036.717.717,0,0,0,.67-.478A.722.722,0,0,0,2617.032-1487.031Zm153.048-3.665a.714.714,0,0,0-.845-.535q-3.354.75-6.842,1.476a.7.7,0,0,0-.546.835.707.707,0,0,0,.691.555,1.157,1.157,0,0,0,.144-.014q3.493-.737,6.863-1.482A.7.7,0,0,0,2770.08-1490.7Zm-165.95-1.511c-2.123-1.027-4.184-2.131-6.132-3.279a.7.7,0,0,0-.957.242.707.707,0,0,0,.247.962c1.979,1.168,4.081,2.288,6.224,3.336a.755.755,0,0,0,.309.064.7.7,0,0,0,.629-.392A.7.7,0,0,0,2604.13-1492.206Zm179.6-1.682a.687.687,0,0,0-.835-.513c-2.216.534-4.482,1.083-6.822,1.625a.693.693,0,0,0-.526.84.7.7,0,0,0,.681.542.717.717,0,0,0,.165-.022q3.509-.813,6.821-1.625A.7.7,0,0,0,2783.734-1493.888Zm13.592-3.486a.7.7,0,0,0-.855-.5c-2.154.577-4.42,1.169-6.78,1.774a.7.7,0,0,0-.505.848.7.7,0,0,0,.681.528.779.779,0,0,0,.175-.021c2.36-.6,4.627-1.2,6.8-1.776A.689.689,0,0,0,2797.326-1497.374Zm-205.149-1.9c-1.886-1.362-3.72-2.815-5.42-4.312a.705.705,0,0,0-.99.057.7.7,0,0,0,.062.99c1.741,1.533,3.606,3.015,5.533,4.406a.725.725,0,0,0,.412.128.688.688,0,0,0,.566-.293A.7.7,0,0,0,2592.177-1499.277Zm218.668-1.882a.7.7,0,0,0-.865-.477c-2.206.648-4.483,1.291-6.74,1.924a.693.693,0,0,0-.484.862.694.694,0,0,0,.67.513.553.553,0,0,0,.185-.028c2.268-.628,4.545-1.276,6.761-1.925A.693.693,0,0,0,2810.846-1501.159Zm13.438-4.155a.7.7,0,0,0-.886-.442c-.021.007-2.432.813-6.7,2.116a.7.7,0,0,0-.464.877.708.708,0,0,0,.669.5.729.729,0,0,0,.207-.035c4.276-1.3,6.708-2.118,6.729-2.124A.7.7,0,0,0,2824.283-1505.314Zm-242.484-3.123-.165-.185c-1.515-1.66-3.009-3.357-4.442-5.054a.688.688,0,0,0-.979-.086.7.7,0,0,0-.083.991c1.433,1.711,2.937,3.421,4.462,5.089l.175.192a.717.717,0,0,0,.515.229.7.7,0,0,0,.474-.186A.693.693,0,0,0,2581.8-1508.436Zm-9-10.655c-1.423-1.84-2.824-3.721-4.164-5.6a.707.707,0,0,0-.979-.164.705.705,0,0,0-.165.977c1.35,1.9,2.761,3.8,4.2,5.645a.682.682,0,0,0,.546.271.729.729,0,0,0,.432-.143A.7.7,0,0,0,2572.8-1519.091Zm-8.09-11.37c-1.257-1.945-2.494-3.941-3.668-5.929a.7.7,0,0,0-.959-.25.709.709,0,0,0-.247.962c1.185,2,2.422,4.02,3.7,5.98a.7.7,0,0,0,.587.322.669.669,0,0,0,.382-.115A.69.69,0,0,0,2564.715-1530.461Zm-7.059-12.016c-1.092-2.053-2.143-4.156-3.122-6.238a.7.7,0,0,0-.937-.335.691.691,0,0,0-.33.927c.989,2.111,2.051,4.227,3.142,6.3a.709.709,0,0,0,.629.371.746.746,0,0,0,.32-.079A.7.7,0,0,0,2557.656-1542.477Zm-5.946-12.616c-.9-2.146-1.742-4.334-2.525-6.5a.688.688,0,0,0-.886-.42.707.707,0,0,0-.433.9c.793,2.189,1.649,4.4,2.545,6.564a.706.706,0,0,0,.649.427.7.7,0,0,0,.268-.05A.707.707,0,0,0,2551.71-1555.093Zm-4.73-13.115c-.67-2.217-1.309-4.476-1.876-6.715a.688.688,0,0,0-.845-.506.683.683,0,0,0-.505.848c.567,2.26,1.206,4.54,1.886,6.786a.7.7,0,0,0,.67.492.668.668,0,0,0,.206-.029.7.7,0,0,0,.464-.876Zm-3.411-13.515c-.454-2.273-.855-4.59-1.2-6.871a.682.682,0,0,0-.783-.584.7.7,0,0,0-.6.792c.341,2.3.742,4.64,1.206,6.942a.705.705,0,0,0,.69.564.852.852,0,0,0,.134-.014A.7.7,0,0,0,2543.57-1581.723Zm-2.484-20.741a.716.716,0,0,0-.731-.67.706.706,0,0,0-.67.728c.092,2.323.247,4.69.474,7.028a.688.688,0,0,0,.69.634h.072a.7.7,0,0,0,.629-.763c-.217-2.316-.371-4.653-.464-6.957Zm-.422-14.675a.7.7,0,0,0-.752.648c-.165,2.316-.279,4.682-.309,7.042a.7.7,0,0,0,.691.713h0a.691.691,0,0,0,.7-.691c.042-2.331.145-4.669.32-6.964A.708.708,0,0,0,2540.664-1617.14Zm1.958-13.865a.581.581,0,0,0-.247-.006.691.691,0,0,0-.587-.264q-3.37.17-6.956.106a.7.7,0,0,0-.711.691.7.7,0,0,0,.69.713c2.36.036,4.658,0,6.874-.107-.412,2.089-.763,4.227-1.041,6.365a.688.688,0,0,0,.6.792.41.41,0,0,0,.093.007.691.691,0,0,0,.69-.606c.309-2.317.7-4.625,1.144-6.871A.687.687,0,0,0,2542.621-1631Zm-14.746-.477c-2.257-.171-4.6-.4-6.946-.684a.7.7,0,0,0-.772.613.685.685,0,0,0,.608.777c2.381.292,4.73.52,7.007.691h.052a.706.706,0,0,0,.7-.649A.7.7,0,0,0,2527.875-1631.481Zm28.493-1.112a.7.7,0,0,0-.834-.528c-2.175.506-4.462.92-6.822,1.226a.7.7,0,0,0-.608.784.7.7,0,0,0,.69.613.41.41,0,0,0,.093-.007c2.411-.314,4.75-.735,6.956-1.248A.7.7,0,0,0,2556.368-1632.593Zm-42.292-.663c-2.3-.464-4.564-1.026-6.739-1.668a.7.7,0,0,0-.876.478.708.708,0,0,0,.474.869c2.225.648,4.524,1.218,6.863,1.689a.424.424,0,0,0,.134.014.706.706,0,0,0,.69-.563A.7.7,0,0,0,2514.076-1633.256Zm55.317-4.362a.7.7,0,0,0-.948-.278,46.769,46.769,0,0,1-6.286,2.823.71.71,0,0,0-.423.9.693.693,0,0,0,.659.457.537.537,0,0,0,.238-.042,45.849,45.849,0,0,0,6.481-2.909A.7.7,0,0,0,2569.393-1637.618Zm-68.6.421a65.494,65.494,0,0,1-6.3-2.916.708.708,0,0,0-.948.3.7.7,0,0,0,.3.941,67.055,67.055,0,0,0,6.409,2.972.788.788,0,0,0,.268.057.71.71,0,0,0,.649-.442.7.7,0,0,0-.382-.913Zm45.65-7.278a.694.694,0,0,0-.9.42c-.783,2.166-1.494,4.433-2.123,6.736a.692.692,0,0,0,.484.855.6.6,0,0,0,.186.029.7.7,0,0,0,.68-.513c.619-2.267,1.33-4.5,2.092-6.636A.694.694,0,0,0,2546.444-1644.475Zm33.44-2.267a.69.69,0,0,0-.979.136,30.37,30.37,0,0,1-4.761,4.89.687.687,0,0,0-.093.983.671.671,0,0,0,.536.256.682.682,0,0,0,.443-.157,31.176,31.176,0,0,0,4.987-5.125A.709.709,0,0,0,2579.883-1646.741Zm-91.321,3.072a58.821,58.821,0,0,1-5.5-4.191.719.719,0,0,0-1,.078.715.715,0,0,0,.083.992,64.514,64.514,0,0,0,5.626,4.283.681.681,0,0,0,.4.121.689.689,0,0,0,.576-.306A.706.706,0,0,0,2488.562-1643.67Zm63.9-13.443a.7.7,0,0,0-.959.242,69.715,69.715,0,0,0-3.287,6.273.693.693,0,0,0,.34.927.6.6,0,0,0,.288.064.721.721,0,0,0,.65-.406,64.829,64.829,0,0,1,3.215-6.136A.718.718,0,0,0,2552.462-1657.113Zm-74.4,4.462a60.406,60.406,0,0,1-4.421-5.331.7.7,0,0,0-.979-.149.7.7,0,0,0-.144.984,61.373,61.373,0,0,0,4.513,5.452.691.691,0,0,0,.515.221.668.668,0,0,0,.474-.184A.7.7,0,0,0,2478.061-1652.651Zm106.47-7.084a.7.7,0,0,0-.742.655,20.961,20.961,0,0,1-1.515,6.579.715.715,0,0,0,.4.913.642.642,0,0,0,.258.05.688.688,0,0,0,.649-.442,22.51,22.51,0,0,0,1.608-7.013A.7.7,0,0,0,2584.531-1659.735Zm-23.248-8.2a.7.7,0,0,0-.989-.042,43.57,43.57,0,0,0-4.813,5.247.709.709,0,0,0,.124.982.709.709,0,0,0,.434.15.7.7,0,0,0,.556-.27,41.217,41.217,0,0,1,4.647-5.075A.712.712,0,0,0,2561.283-1667.932Zm-91.425,4.156a62.112,62.112,0,0,1-3.123-6.18.711.711,0,0,0-.927-.356.7.7,0,0,0-.361.919,67.317,67.317,0,0,0,3.194,6.316.687.687,0,0,0,.608.355.7.7,0,0,0,.35-.1A.7.7,0,0,0,2469.859-1663.777Zm114.373-2.4a12.925,12.925,0,0,0-4.194-5.98.716.716,0,0,0-.989.135.7.7,0,0,0,.133.984,11.489,11.489,0,0,1,3.731,5.331.7.7,0,0,0,.659.464.635.635,0,0,0,.236-.043A.693.693,0,0,0,2584.232-1666.172Zm-11.211-8.132a15.986,15.986,0,0,0-6.946,2.1.7.7,0,0,0-.289.955.7.7,0,0,0,.618.364.751.751,0,0,0,.34-.086,14.552,14.552,0,0,1,6.337-1.932.7.7,0,0,0,.67-.727A.708.708,0,0,0,2573.021-1674.3Zm-108.738-2.131c-.69-2.175-1.288-4.427-1.782-6.693a.692.692,0,0,0-.825-.542.689.689,0,0,0-.536.826c.484,2.317,1.1,4.619,1.8,6.836a.705.705,0,0,0,.67.484.749.749,0,0,0,.216-.028A.7.7,0,0,0,2464.283-1676.435Zm-3.37-20.465a.694.694,0,0,0-.711-.684.707.707,0,0,0-.679.72c.04,2.359.206,4.733.474,7.05a.7.7,0,0,0,.7.62h.072a.71.71,0,0,0,.629-.776C2461.13-1692.245,2460.976-1694.575,2460.914-1696.9Zm.32-14.64a.707.707,0,0,0-.793.584c-.361,2.331-.619,4.7-.763,7.028a.687.687,0,0,0,.65.742c.01,0,.031.007.052.007a.7.7,0,0,0,.69-.656c.154-2.295.412-4.618.762-6.906A.709.709,0,0,0,2461.233-1711.54Zm3.38-13.585a.7.7,0,0,0-.886.448c-.732,2.231-1.381,4.52-1.927,6.793a.7.7,0,0,0,.515.841.655.655,0,0,0,.165.021.7.7,0,0,0,.68-.535c.536-2.238,1.174-4.483,1.9-6.686A.7.7,0,0,0,2464.613-1725.125Zm5.513-12.866a.694.694,0,0,0-.937.3c-1.093,2.089-2.092,4.241-3,6.4a.7.7,0,0,0,.381.912.566.566,0,0,0,.268.057.718.718,0,0,0,.649-.428c.886-2.124,1.876-4.24,2.937-6.3A.7.7,0,0,0,2470.126-1737.99Zm7.471-11.839a.7.7,0,0,0-.979.149c-1.391,1.9-2.72,3.864-3.957,5.852a.7.7,0,0,0,.226.963.712.712,0,0,0,.371.106.7.7,0,0,0,.6-.335c1.215-1.953,2.524-3.891,3.885-5.751A.71.71,0,0,0,2477.6-1749.829Zm9.2-10.542a.69.69,0,0,0-.989,0c-1.659,1.654-3.278,3.392-4.8,5.168a.7.7,0,0,0,.083.99.665.665,0,0,0,.453.171.68.68,0,0,0,.526-.249c1.5-1.747,3.091-3.457,4.73-5.09a.692.692,0,0,0,0-.99Zm10.686-9.037a.7.7,0,0,0-.979-.15c-1.9,1.4-3.741,2.873-5.513,4.391a.7.7,0,0,0-.083.991.706.706,0,0,0,.536.242.708.708,0,0,0,.464-.163c1.731-1.5,3.566-2.958,5.43-4.334A.691.691,0,0,0,2497.486-1769.408Zm11.882-7.406a.71.71,0,0,0-.948-.286c-2.061,1.119-4.122,2.316-6.08,3.564a.7.7,0,0,0-.227.961.7.7,0,0,0,.6.329.712.712,0,0,0,.37-.107c1.949-1.234,3.969-2.409,6.008-3.507A.7.7,0,0,0,2509.367-1776.814Zm12.778-5.709a.686.686,0,0,0-.9-.407c-2.2.834-4.39,1.739-6.513,2.7a.693.693,0,0,0-.34.926.683.683,0,0,0,.627.413.733.733,0,0,0,.3-.064c2.091-.948,4.245-1.847,6.419-2.666A.7.7,0,0,0,2522.145-1782.523Zm8.141-2.673a.709.709,0,0,0-.876-.478c-.494.149-1,.3-1.494.457a.7.7,0,0,0-.464.877.7.7,0,0,0,.67.491.734.734,0,0,0,.206-.028q.742-.235,1.484-.449a.7.7,0,0,0,.474-.87" transform="translate(-2459.523 1785.702)" fill="#656565"/>
      </g>
      <g id="g542" transform="translate(-63.015 332.805) rotate(-22)">
        <path id="path544" d="M76.886,198.47c-2.266.307-4.592.513-6.918.606a.7.7,0,0,0,.026,1.4h.035c2.362-.1,4.732-.307,7.041-.62a.7.7,0,0,0-.183-1.39Zm-13.863.6c-2.309-.107-4.636-.314-6.927-.621a.7.7,0,0,0-.784.607.712.712,0,0,0,.6.783c2.335.307,4.7.521,7.04.627h.035a.7.7,0,0,0,.035-1.4Zm-13.758-1.839c-2.265-.506-4.523-1.119-6.7-1.818a.7.7,0,1,0-.427,1.333c2.213.713,4.513,1.34,6.822,1.854a.532.532,0,0,0,.156.014.691.691,0,0,0,.671-.542A.7.7,0,0,0,49.266,197.229Zm41.989-1.511a.7.7,0,0,0-.9-.435,66.583,66.583,0,0,1-6.648,1.932.7.7,0,0,0-.522.849.691.691,0,0,0,.671.534.641.641,0,0,0,.166-.014,67.8,67.8,0,0,0,6.8-1.974A.7.7,0,0,0,91.255,195.718Zm-55.181-2.737a68.082,68.082,0,0,1-6.222-3.058.7.7,0,0,0-.688,1.226,70.345,70.345,0,0,0,6.352,3.115.638.638,0,0,0,.279.057.7.7,0,0,0,.279-1.34Zm66.2-2.616a.694.694,0,0,0-.958-.235c-1.455.891-2.989,1.732-4.575,2.5a.705.705,0,0,0,.314,1.333.767.767,0,0,0,.3-.071c1.621-.791,3.2-1.654,4.688-2.566A.692.692,0,0,0,102.277,190.366Zm-78.289-4.135a58.879,58.879,0,0,1-5.384-4.326.7.7,0,0,0-.994.043.692.692,0,0,0,.052.991,58.308,58.308,0,0,0,5.516,4.433.666.666,0,0,0,.4.128.7.7,0,0,0,.41-1.269Zm-10.2-9.28a51.363,51.363,0,0,1-4.13-5.538.7.7,0,0,0-1.176.762,53.145,53.145,0,0,0,4.234,5.68.691.691,0,0,0,.532.25.7.7,0,0,0,.54-1.155ZM6.308,165.376a51.488,51.488,0,0,1-2.483-6.437.7.7,0,0,0-1.342.414,52.524,52.524,0,0,0,2.562,6.614.7.7,0,0,0,.635.4.649.649,0,0,0,.3-.065.691.691,0,0,0,.331-.926Zm-4.9-20.022a.7.7,0,0,0-1.394.078,59.918,59.918,0,0,0,.8,7.035.7.7,0,0,0,.688.577.681.681,0,0,0,.123-.007.7.7,0,0,0,.566-.812A58.572,58.572,0,0,1,1.412,145.354ZM1.5,130.728a.7.7,0,0,0-.793.6c-.348,2.366-.583,4.74-.705,7.035a.711.711,0,0,0,.671.734H.707a.71.71,0,0,0,.705-.663c.114-2.252.34-4.576.68-6.907a.7.7,0,0,0-.592-.8Zm3.215-13.621a.7.7,0,0,0-.871.463c-.7,2.281-1.307,4.576-1.83,6.814a.7.7,0,0,0,.531.842.6.6,0,0,0,.157.014.693.693,0,0,0,.68-.541c.505-2.2,1.115-4.47,1.8-6.714A.708.708,0,0,0,4.714,117.108Zm4.993-13.087a.706.706,0,0,0-.932.356c-.958,2.181-1.848,4.376-2.667,6.522a.708.708,0,0,0,.418.9.735.735,0,0,0,.244.043.69.69,0,0,0,.653-.457c.8-2.124,1.69-4.291,2.64-6.45A.694.694,0,0,0,9.707,104.021Zm6.334-12.5a.7.7,0,0,0-.958.27c-1.158,2.082-2.274,4.17-3.294,6.216a.7.7,0,0,0,.314.94.661.661,0,0,0,.313.078.711.711,0,0,0,.627-.391c1.01-2.025,2.117-4.1,3.268-6.159A.711.711,0,0,0,16.042,91.52Zm7.38-11.925a.7.7,0,0,0-.975.193c-1.316,1.981-2.588,3.976-3.8,5.93a.708.708,0,0,0,.235.962.674.674,0,0,0,.365.107.72.72,0,0,0,.6-.336c1.185-1.939,2.457-3.92,3.765-5.888A.71.71,0,0,0,23.422,79.594ZM31.6,68.19a.7.7,0,0,0-.984.135c-1.438,1.882-2.841,3.792-4.174,5.659a.691.691,0,0,0,.165.977.664.664,0,0,0,.41.135.725.725,0,0,0,.566-.292c1.325-1.86,2.728-3.756,4.148-5.63A.705.705,0,0,0,31.6,68.19Zm8.818-10.9a.694.694,0,0,0-.985.085c-1.534,1.8-3.051,3.628-4.488,5.417a.7.7,0,0,0,.113.984.65.65,0,0,0,.427.157.673.673,0,0,0,.549-.264c1.445-1.782,2.936-3.593,4.461-5.388A.7.7,0,0,0,40.422,57.292Zm9.349-10.463a.7.7,0,0,0-.994.035c-1.612,1.732-3.206,3.485-4.731,5.2a.7.7,0,0,0,.523,1.168A.723.723,0,0,0,45.092,53c1.515-1.717,3.111-3.456,4.713-5.181A.708.708,0,0,0,49.771,46.829Zm9.785-10.058a.7.7,0,0,0-.993,0c-1.673,1.654-3.328,3.336-4.94,5a.7.7,0,1,0,1,.976c1.6-1.653,3.268-3.329,4.923-4.982A.7.7,0,0,0,59.556,36.771Zm10.169-9.68a.7.7,0,0,0-.993-.035c-1.726,1.59-3.45,3.208-5.132,4.811a.706.706,0,0,0-.026.991.734.734,0,0,0,.505.214.687.687,0,0,0,.488-.193c1.673-1.6,3.4-3.214,5.115-4.8a.709.709,0,0,0,.043-.992Zm10.5-9.315a.694.694,0,0,0-.985-.072c-1.777,1.519-3.555,3.079-5.3,4.626a.709.709,0,0,0-.061.991.73.73,0,0,0,.531.235.689.689,0,0,0,.462-.178c1.734-1.547,3.5-3.094,5.272-4.612A.7.7,0,0,0,80.224,17.776ZM91.046,8.824a.7.7,0,0,0-.985-.114c-1.795,1.446-3.634,2.943-5.455,4.447a.7.7,0,0,0-.087.991.688.688,0,0,0,.541.25.7.7,0,0,0,.444-.157c1.812-1.5,3.642-3,5.437-4.434A.7.7,0,0,0,91.046,8.824ZM102.26.3a.7.7,0,0,0-.977-.171c-.025.015-2.144,1.518-5.68,4.241a.7.7,0,0,0,.427,1.255.738.738,0,0,0,.426-.144c3.512-2.7,5.612-4.191,5.629-4.2A.7.7,0,0,0,102.26.3" fill="#656565"/>
      </g>
      <g id="g546" transform="translate(-52.014 110.152)">
        <path id="path548" d="M2281.229-1327.19c-2.351.149-4.694.2-6.936.135a.708.708,0,0,0-.73.677.7.7,0,0,0,.688.72c.679.021,1.374.029,2.071.029,1.638,0,3.319-.05,5-.165a.685.685,0,0,0,.645-.741.693.693,0,0,0-.738-.656Zm-13.845-.414a60.822,60.822,0,0,1-6.8-1.283.711.711,0,0,0-.849.513.7.7,0,0,0,.517.848,63.008,63.008,0,0,0,6.944,1.312.54.54,0,0,0,.093.006.713.713,0,0,0,.7-.6A.711.711,0,0,0,2267.384-1327.6Zm28.419-1.076a.694.694,0,0,0-.832-.528c-2.3.513-4.6.942-6.834,1.276a.7.7,0,0,0-.594.8.7.7,0,0,0,.688.6c.042,0,.077-.007.111-.007,2.266-.342,4.6-.776,6.935-1.3A.7.7,0,0,0,2295.8-1328.679Zm-41.813-2.26a56.557,56.557,0,0,1-6.307-2.836.7.7,0,0,0-.942.292.7.7,0,0,0,.3.948,57.157,57.157,0,0,0,6.46,2.908.715.715,0,0,0,.246.042.7.7,0,0,0,.654-.449A.707.707,0,0,0,2253.99-1330.939Zm54.664-3.343a.7.7,0,0,0-.95-.272,61.7,61.7,0,0,1-6.222,3.073.7.7,0,0,0-.374.92.7.7,0,0,0,.645.42.693.693,0,0,0,.271-.05,64.475,64.475,0,0,0,6.367-3.135A.7.7,0,0,0,2308.654-1334.282Zm-66.87-3.08a57.2,57.2,0,0,1-5.433-4.284.7.7,0,0,0-.993.057.7.7,0,0,0,.06.991,58.646,58.646,0,0,0,5.559,4.383.717.717,0,0,0,.4.128.688.688,0,0,0,.577-.306A.7.7,0,0,0,2241.784-1337.361Zm77.9-5.517a.7.7,0,0,0-.994.015,43.52,43.52,0,0,1-5.186,4.54.711.711,0,0,0-.144.984.726.726,0,0,0,.569.278.681.681,0,0,0,.416-.143,45.151,45.151,0,0,0,5.356-4.683A.7.7,0,0,0,2319.68-1342.879Zm-88.227-3.656a65.975,65.975,0,0,1-4.329-5.41.7.7,0,0,0-.977-.164.705.705,0,0,0-.162.976,68.16,68.16,0,0,0,4.424,5.532.725.725,0,0,0,.526.227.664.664,0,0,0,.459-.178A.689.689,0,0,0,2231.454-1346.535Zm95.526-8.183a.708.708,0,0,0-.908.413,30.376,30.376,0,0,1-3.081,6.094.7.7,0,0,0,.2.969.7.7,0,0,0,.382.115.692.692,0,0,0,.585-.314,31.762,31.762,0,0,0,3.226-6.372A.707.707,0,0,0,2326.98-1354.717Zm-103.59-3.065c-1.129-1.981-2.182-4.063-3.142-6.179a.7.7,0,0,0-.925-.357.7.7,0,0,0-.347.926c.967,2.16,2.044,4.284,3.2,6.3a.711.711,0,0,0,.611.356.629.629,0,0,0,.34-.093A.688.688,0,0,0,2223.39-1357.782Zm-5.688-12.637c-.747-2.181-1.4-4.426-1.944-6.664a.7.7,0,0,0-.849-.513.692.692,0,0,0-.51.841c.543,2.288,1.214,4.568,1.978,6.792a.709.709,0,0,0,.662.471.776.776,0,0,0,.22-.036A.7.7,0,0,0,2217.7-1370.419Zm49.937-8.774a20.124,20.124,0,0,1-3.115-.876,12.264,12.264,0,0,1-3.022-1.64.694.694,0,0,0-.976.149.7.7,0,0,0,.144.984,13.972,13.972,0,0,0,3.369,1.818,21.535,21.535,0,0,0,3.336.948.851.851,0,0,0,.128.006.707.707,0,0,0,.7-.569A.71.71,0,0,0,2267.639-1379.194Zm10.466-6.593a.705.705,0,0,0-.841.535,7.816,7.816,0,0,1-3.335,5.3.7.7,0,0,0-.23.963.707.707,0,0,0,.6.334.718.718,0,0,0,.366-.107,9.171,9.171,0,0,0,3.964-6.194.693.693,0,0,0-.526-.834Zm-64.367-5.017a.68.68,0,0,0-.729-.663.7.7,0,0,0-.663.734c.111,2.317.348,4.69.7,7.042a.706.706,0,0,0,.7.6c.034,0,.06-.007.093-.007a.7.7,0,0,0,.594-.8c-.34-2.31-.569-4.633-.687-6.906Zm43.222,4.148a35.451,35.451,0,0,1-3.141-6.094.688.688,0,0,0-.908-.385.7.7,0,0,0-.39.913,37.228,37.228,0,0,0,3.268,6.336.7.7,0,0,0,.586.313.658.658,0,0,0,.381-.114A.7.7,0,0,0,2256.961-1386.657Zm20.3-12.459a.7.7,0,0,0-.883-.456.706.706,0,0,0-.449.884,36.867,36.867,0,0,1,1.52,6.7.689.689,0,0,0,.687.613h.094a.71.71,0,0,0,.611-.783A37.324,37.324,0,0,0,2277.256-1399.116Zm-63.263-6.308a.71.71,0,0,0-.815.571,57.823,57.823,0,0,0-.815,7.042.693.693,0,0,0,.662.734h.043a.7.7,0,0,0,.7-.656,55.287,55.287,0,0,1,.8-6.871A.707.707,0,0,0,2213.993-1405.424Zm37.637,6.109c-.569-2.117-1.07-4.4-1.5-6.786a.686.686,0,0,0-.806-.564.7.7,0,0,0-.569.812c.434,2.424.951,4.748,1.537,6.9a.691.691,0,0,0,.671.521.486.486,0,0,0,.178-.029A.683.683,0,0,0,2251.63-1399.315Zm22.952-6.387a51.264,51.264,0,0,0-3.557-6.145.708.708,0,0,0-.976-.192.691.691,0,0,0-.187.969,52.083,52.083,0,0,1,3.463,5.986.7.7,0,0,0,.628.392.834.834,0,0,0,.314-.071A.709.709,0,0,0,2274.582-1405.7Zm-55.768-12.8a.693.693,0,0,0-.95.257,35.969,35.969,0,0,0-2.921,6.507.7.7,0,0,0,.442.891.755.755,0,0,0,.229.036.712.712,0,0,0,.661-.478,34.874,34.874,0,0,1,2.8-6.257A.7.7,0,0,0,2218.814-1418.5Zm29.743-1.433a.685.685,0,0,0-.73-.655.693.693,0,0,0-.662.734c.136,2.4.33,4.761.585,7.021a.7.7,0,0,0,.688.627.22.22,0,0,0,.076-.007.7.7,0,0,0,.628-.77c-.254-2.238-.449-4.576-.585-6.95Zm18.115,2.482a45.6,45.6,0,0,0-5.136-4.918.707.707,0,0,0-.993.107.7.7,0,0,0,.11.984,44.69,44.69,0,0,1,4.974,4.761.688.688,0,0,0,.519.235.67.67,0,0,0,.466-.178A.705.705,0,0,0,2266.672-1417.455Zm-37.722-10.407a.692.692,0,0,0-.934-.321,21.956,21.956,0,0,0-5.823,4.219.689.689,0,0,0,0,.991.69.69,0,0,0,.484.207.733.733,0,0,0,.5-.207,20.382,20.382,0,0,1,5.458-3.949A.694.694,0,0,0,2228.95-1427.861Zm26.687,1.5a34.512,34.512,0,0,0-6.569-2.786.7.7,0,0,0-.739.214c.009-1.626.033-3.293.093-4.947a.706.706,0,0,0-.679-.72.7.7,0,0,0-.729.677c-.051,1.832-.086,3.672-.086,5.46,0,.528,0,1.055.009,1.575a.7.7,0,0,0,.7.7h.009a.707.707,0,0,0,.7-.713c0-.371,0-.748-.009-1.126a.713.713,0,0,0,.331.221,33.77,33.77,0,0,1,6.306,2.673.628.628,0,0,0,.332.086.7.7,0,0,0,.611-.357A.7.7,0,0,0,2255.636-1426.365Zm-13.581-4.1a33.443,33.443,0,0,0-7.147.242.694.694,0,0,0-.585.791.7.7,0,0,0,.688.606.515.515,0,0,0,.1-.007,31.431,31.431,0,0,1,6.833-.236.685.685,0,0,0,.747-.648.684.684,0,0,0-.637-.748Zm6.722-18.119a.7.7,0,0,0-.772.62c-.246,2.345-.467,4.7-.629,7.013a.7.7,0,0,0,.654.749h.043a.7.7,0,0,0,.7-.648c.162-2.3.375-4.641.629-6.957A.719.719,0,0,0,2248.778-1448.589Zm2.038-13.871a.7.7,0,0,0-.815.57c-.416,2.3-.781,4.633-1.121,6.943a.7.7,0,0,0,.594.791.54.54,0,0,0,.1.006.7.7,0,0,0,.7-.6c.332-2.295.7-4.619,1.113-6.9A.7.7,0,0,0,2250.816-1462.459Zm3-13.7a.7.7,0,0,0-.848.506c-.569,2.253-1.112,4.561-1.6,6.856a.7.7,0,0,0,.527.834,1.111,1.111,0,0,0,.153.014.7.7,0,0,0,.688-.548c.492-2.281,1.027-4.576,1.595-6.814A.7.7,0,0,0,2253.812-1476.159Zm3.99-13.45a.694.694,0,0,0-.882.449c-.739,2.188-1.444,4.448-2.105,6.714a.7.7,0,0,0,.475.87.686.686,0,0,0,.2.028.71.71,0,0,0,.67-.506c.653-2.245,1.349-4.49,2.08-6.664A.711.711,0,0,0,2257.8-1489.609Zm5.025-13.072a.712.712,0,0,0-.925.363c-.908,2.131-1.791,4.326-2.623,6.529a.69.69,0,0,0,.4.9.646.646,0,0,0,.255.05.676.676,0,0,0,.645-.457c.84-2.181,1.714-4.362,2.614-6.465A.7.7,0,0,0,2262.826-1502.681Zm6.171-12.58a.707.707,0,0,0-.959.277c-1.1,2.018-2.182,4.127-3.217,6.259a.7.7,0,0,0,.331.94.686.686,0,0,0,.3.073.718.718,0,0,0,.637-.4c1.018-2.11,2.088-4.2,3.191-6.2A.705.705,0,0,0,2269-1515.261Zm7.452-11.861a.707.707,0,0,0-.976.171c-1.324,1.875-2.631,3.856-3.88,5.881a.689.689,0,0,0,.221.963.671.671,0,0,0,.366.107.714.714,0,0,0,.6-.335c1.239-2,2.529-3.949,3.838-5.81A.7.7,0,0,0,2276.45-1527.122Zm8.913-10.8a.7.7,0,0,0-.993.029c-1.57,1.675-3.132,3.464-4.634,5.317a.692.692,0,0,0,.1.984.688.688,0,0,0,.441.157.69.69,0,0,0,.544-.257c1.476-1.824,3.013-3.592,4.566-5.239A.7.7,0,0,0,2285.362-1537.921Zm10.475-9.287a.705.705,0,0,0-.985-.136c-1.85,1.39-3.684,2.908-5.441,4.5a.69.69,0,0,0-.051.991.706.706,0,0,0,.518.228.671.671,0,0,0,.467-.178c1.74-1.574,3.531-3.057,5.348-4.426A.711.711,0,0,0,2295.837-1547.207Zm117.1,2.537a60.474,60.474,0,0,0-5.627-4.341.705.705,0,0,0-.977.178.705.705,0,0,0,.169.977,59.452,59.452,0,0,1,5.492,4.226.706.706,0,0,0,.476.178.682.682,0,0,0,.518-.228A.7.7,0,0,0,2412.94-1544.671Zm-105.143-9.758a.69.69,0,0,0-.933-.306c-.985.5-2,1.027-2.98,1.561-1.069.585-2.138,1.2-3.2,1.854a.694.694,0,0,0-.23.962.7.7,0,0,0,.594.335.672.672,0,0,0,.365-.107c1.036-.635,2.088-1.24,3.141-1.811.976-.527,1.96-1.048,2.937-1.547A.694.694,0,0,0,2307.8-1554.428Zm93.557,1.611c-2.011-1.183-4.1-2.31-6.214-3.357a.71.71,0,0,0-.942.313.7.7,0,0,0,.323.941c2.079,1.034,4.134,2.145,6.128,3.315a.679.679,0,0,0,.357.092.693.693,0,0,0,.594-.342A.7.7,0,0,0,2401.354-1552.818Zm-80.672-7.113a.708.708,0,0,0-.9-.421c-2.172.784-4.38,1.668-6.552,2.609a.713.713,0,0,0-.365.926.716.716,0,0,0,.645.421.67.67,0,0,0,.289-.064c2.139-.926,4.312-1.8,6.459-2.572A.706.706,0,0,0,2320.682-1559.931Zm68.033.842c-2.173-.891-4.4-1.718-6.612-2.452a.7.7,0,0,0-.891.449.693.693,0,0,0,.449.883c2.182.72,4.38,1.533,6.52,2.417a.731.731,0,0,0,.271.05.7.7,0,0,0,.645-.435A.7.7,0,0,0,2388.715-1559.089Zm-54.546-4.605a.709.709,0,0,0-.839-.541c-2.267.485-4.567,1.055-6.842,1.71a.69.69,0,0,0-.475.863.7.7,0,0,0,.671.506.838.838,0,0,0,.186-.022c2.241-.648,4.515-1.211,6.756-1.689A.7.7,0,0,0,2334.169-1563.695Zm41.151.193c-2.291-.577-4.609-1.062-6.909-1.462a.7.7,0,0,0-.807.571.7.7,0,0,0,.569.813c2.267.391,4.55.869,6.808,1.432a.636.636,0,0,0,.17.021.7.7,0,0,0,.679-.527A.7.7,0,0,0,2375.32-1563.5Zm-28.01-2.63c-2.335.136-4.694.371-7.02.685a.7.7,0,0,0-.6.79.7.7,0,0,0,.7.606.46.46,0,0,0,.094-.007c2.3-.314,4.625-.541,6.918-.677a.7.7,0,0,0,.653-.741A.692.692,0,0,0,2347.31-1566.132Zm14.106.242c-2.342-.22-4.7-.356-7.053-.392a.684.684,0,0,0-.713.684.706.706,0,0,0,.7.713c2.3.042,4.635.171,6.943.385a.163.163,0,0,0,.059.007.7.7,0,0,0,.7-.635.7.7,0,0,0-.629-.763" transform="translate(-2212.345 1566.284)" fill="#656565"/>
      </g>
      <g id="g550" transform="translate(585.186 54.088)">
        <path id="path552" d="M3286.991-1653.475c-.011-.022-1.579-2.074-4.135-5.674a.7.7,0,0,0-.978-.171.707.707,0,0,0-.167.977c2.579,3.628,4.157,5.7,4.168,5.716a.71.71,0,0,0,.556.278.756.756,0,0,0,.434-.142.7.7,0,0,0,.122-.984Zm-8.125-11.44c-1.289-1.9-2.6-3.871-3.878-5.837a.7.7,0,0,0-.967-.207.693.693,0,0,0-.2.969c1.279,1.981,2.59,3.949,3.89,5.859a.7.7,0,0,0,.578.314.727.727,0,0,0,.39-.121A.7.7,0,0,0,3278.866-1664.915Zm-7.646-11.747c-1.245-1.981-2.478-3.991-3.657-5.972a.708.708,0,0,0-.967-.244.7.7,0,0,0-.244.963c1.2,1.989,2.434,4.005,3.679,5.995a.686.686,0,0,0,.589.327.669.669,0,0,0,.378-.107A.706.706,0,0,0,3271.22-1676.662Zm-7.213-12.009c-1.179-2.038-2.323-4.091-3.435-6.108a.7.7,0,0,0-.955-.278.7.7,0,0,0-.267.955c1.111,2.024,2.267,4.084,3.446,6.123a.677.677,0,0,0,.6.357.64.64,0,0,0,.345-.093A.688.688,0,0,0,3264.007-1688.671Zm-6.736-12.282c-1.1-2.08-2.167-4.184-3.179-6.236a.7.7,0,0,0-.933-.32.69.69,0,0,0-.322.94c1.011,2.067,2.089,4.17,3.178,6.266a.72.72,0,0,0,.633.378.762.762,0,0,0,.322-.079.715.715,0,0,0,.3-.948Zm-6.214-12.551c-.989-2.131-1.955-4.277-2.867-6.379a.715.715,0,0,0-.923-.365.706.706,0,0,0-.367.927c.911,2.1,1.89,4.263,2.89,6.408a.7.7,0,0,0,.634.406.659.659,0,0,0,.289-.064A.7.7,0,0,0,3251.057-1713.5Zm-5.567-12.823c-.878-2.181-1.712-4.376-2.512-6.521a.694.694,0,0,0-.889-.421.7.7,0,0,0-.422.9c.8,2.167,1.645,4.376,2.523,6.572a.709.709,0,0,0,.656.435.687.687,0,0,0,.255-.05A.694.694,0,0,0,3245.49-1726.327Zm-4.8-13.136c-.734-2.239-1.423-4.49-2.047-6.679a.7.7,0,0,0-.866-.477.688.688,0,0,0-.478.863c.623,2.21,1.323,4.468,2.068,6.736a.685.685,0,0,0,.656.477.559.559,0,0,0,.222-.035A.7.7,0,0,0,3240.689-1739.463Zm-3.824-13.429c-.544-2.3-1.033-4.6-1.456-6.821a.691.691,0,0,0-.811-.563.7.7,0,0,0-.556.819c.411,2.245.911,4.569,1.467,6.892a.691.691,0,0,0,.678.535.671.671,0,0,0,.167-.021A.682.682,0,0,0,3236.865-1752.892Zm-3.223-20.635a.7.7,0,0,0-.745-.656.709.709,0,0,0-.656.748c.145,2.281.378,4.64.689,7.014a.7.7,0,0,0,.689.613.346.346,0,0,0,.089-.007.705.705,0,0,0,.611-.785C3234.019-1768.944,3233.786-1771.274,3233.641-1773.526Zm-.467-14.655a.716.716,0,0,0-.767.627c-.222,2.288-.333,4.661-.366,7.063a.708.708,0,0,0,.7.706h.011a.7.7,0,0,0,.689-.691c.023-2.366.145-4.7.367-6.942A.7.7,0,0,0,3233.175-1788.181Zm27.408.762h-.133a58.386,58.386,0,0,1-6.78-.405.7.7,0,0,0-.778.612.7.7,0,0,0,.611.777,59.489,59.489,0,0,0,6.947.42h.133a.707.707,0,0,0,.7-.7A.706.706,0,0,0,3260.583-1787.418Zm14.46-1.6a.706.706,0,0,0-.888-.441,39.871,39.871,0,0,1-6.691,1.554.7.7,0,0,0-.6.79.714.714,0,0,0,.7.606c.033,0,.067-.007.1-.007a42.305,42.305,0,0,0,6.935-1.61A.706.706,0,0,0,3275.043-1789.022Zm-28.208.015c-2.212-.506-4.469-1.126-6.68-1.861a.7.7,0,0,0-.89.449.7.7,0,0,0,.445.884c2.268.741,4.557,1.383,6.813,1.889a.647.647,0,0,0,.155.021.709.709,0,0,0,.69-.549A.7.7,0,0,0,3246.834-1789.008Zm39.89-7.477a.7.7,0,0,0-.99.015,25.568,25.568,0,0,1-5.335,4.219.7.7,0,0,0-.244.963.7.7,0,0,0,.6.343.719.719,0,0,0,.367-.1,27.362,27.362,0,0,0,5.613-4.448A.693.693,0,0,0,3286.725-1796.485Zm-53.072,3.158c-2.112-.906-4.224-1.926-6.247-3.015a.7.7,0,0,0-.956.285.7.7,0,0,0,.288.948c2.068,1.112,4.214,2.146,6.369,3.072a.7.7,0,0,0,.278.058.694.694,0,0,0,.633-.428A.7.7,0,0,0,3233.653-1793.327Zm2.39-8.546a.694.694,0,0,0-.879.456,67.178,67.178,0,0,0-1.745,6.864.718.718,0,0,0,.556.827.976.976,0,0,0,.144.007.693.693,0,0,0,.678-.564,67.354,67.354,0,0,1,1.7-6.714A.692.692,0,0,0,3236.042-1801.873Zm-14.627,1.989c-1.934-1.261-3.835-2.623-5.647-4.035a.708.708,0,0,0-.989.115.71.71,0,0,0,.122.984c1.845,1.446,3.779,2.83,5.757,4.113a.665.665,0,0,0,.379.114.711.711,0,0,0,.589-.321A.7.7,0,0,0,3221.416-1799.884Zm72.167-8.7a.7.7,0,0,0-.89.434,33.2,33.2,0,0,1-2.834,6.238.7.7,0,0,0,.245.962.707.707,0,0,0,.356.093.709.709,0,0,0,.611-.342,35.1,35.1,0,0,0,2.956-6.5A.7.7,0,0,0,3293.583-1808.58Zm-51.616-5.952a.7.7,0,0,0-.967.236,57.041,57.041,0,0,0-3.323,6.258.7.7,0,0,0,.355.927.708.708,0,0,0,.29.065.72.72,0,0,0,.645-.414,53.107,53.107,0,0,1,3.235-6.1A.708.708,0,0,0,3241.966-1814.532Zm-31.465,6.088c-1.689-1.6-3.312-3.279-4.812-4.989a.706.706,0,0,0-.99-.071.7.7,0,0,0-.066.99,70.537,70.537,0,0,0,4.912,5.089.7.7,0,0,0,.478.192.724.724,0,0,0,.511-.221.693.693,0,0,0-.033-.99Zm85.448-13.314a.707.707,0,0,0-.744-.664.707.707,0,0,0-.656.742c.034.641.056,1.29.056,1.931a36.613,36.613,0,0,1-.345,4.925.707.707,0,0,0,.6.792h.1a.7.7,0,0,0,.689-.606,37.462,37.462,0,0,0,.344-5.1C3296.005-1820.412,3295.983-1821.1,3295.949-1821.759Zm-94.562,2.879a64.42,64.42,0,0,1-3.679-5.859.693.693,0,0,0-.945-.277.7.7,0,0,0-.278.954,61.986,61.986,0,0,0,3.768,5.994.678.678,0,0,0,.567.292.72.72,0,0,0,.412-.128A.692.692,0,0,0,3201.387-1818.88Zm49.382-6.521a.7.7,0,0,0-.99.028c-1.078,1.133-2.156,2.331-3.245,3.565-.489.562-.967,1.14-1.444,1.717a.707.707,0,0,0,.111.991.72.72,0,0,0,.445.149.671.671,0,0,0,.533-.257c.456-.562.934-1.126,1.412-1.675,1.078-1.226,2.145-2.409,3.2-3.528A.7.7,0,0,0,3250.769-1825.4Zm44.013-3.415a23.975,23.975,0,0,0-2.934-6.564.7.7,0,0,0-.968-.2.7.7,0,0,0-.2.969,22.728,22.728,0,0,1,2.757,6.18.7.7,0,0,0,.667.513.954.954,0,0,0,.2-.029A.7.7,0,0,0,3294.782-1828.816Zm-33.622-5.952a.7.7,0,0,0-.978-.135c-1.767,1.347-3.58,2.88-5.4,4.561a.694.694,0,0,0-.032.991.683.683,0,0,0,.51.228.746.746,0,0,0,.478-.185c1.79-1.653,3.567-3.164,5.29-4.476A.7.7,0,0,0,3261.161-1834.767Zm-66.442,3.792a54.5,54.5,0,0,1-2.212-6.551.709.709,0,0,0-.867-.491.7.7,0,0,0-.489.855,56.967,56.967,0,0,0,2.278,6.715.683.683,0,0,0,.645.435.686.686,0,0,0,.266-.05A.7.7,0,0,0,3194.718-1830.975Zm78.78-10.271a.689.689,0,0,0-.867-.464,33.018,33.018,0,0,0-6.546,2.88.689.689,0,0,0-.256.954.679.679,0,0,0,.6.357.739.739,0,0,0,.345-.093,31.831,31.831,0,0,1,6.268-2.757A.7.7,0,0,0,3273.5-1841.246Zm13.215.748a14.777,14.777,0,0,0-6.935-2.167.707.707,0,0,0-.746.663.7.7,0,0,0,.656.742,13.28,13.28,0,0,1,6.291,1.953.73.73,0,0,0,.367.106.714.714,0,0,0,.6-.335A.7.7,0,0,0,3286.713-1840.5Zm-96.1-10.684a.719.719,0,0,0-.712-.691.7.7,0,0,0-.689.706,57.619,57.619,0,0,0,.522,7.063.69.69,0,0,0,.689.606.5.5,0,0,0,.1-.007.7.7,0,0,0,.6-.785A54.867,54.867,0,0,1,3190.617-1851.182Zm.767-14.6a.705.705,0,0,0-.823.549c-.433,2.26-.778,4.611-1.011,7a.708.708,0,0,0,.633.762h.067a.7.7,0,0,0,.7-.627c.221-2.344.567-4.654.989-6.864A.69.69,0,0,0,3191.384-1865.78Zm4.312-13.293a.7.7,0,0,0-.922.349,58.015,58.015,0,0,0-2.49,6.636.7.7,0,0,0,.468.877.649.649,0,0,0,.2.028.694.694,0,0,0,.667-.491,59.49,59.49,0,0,1,2.434-6.472.71.71,0,0,0-.356-.927Zm7.47-11.8a.716.716,0,0,0-1,.1,52.97,52.97,0,0,0-4.09,5.781.7.7,0,0,0,.222.962.691.691,0,0,0,.366.107.714.714,0,0,0,.6-.334,50.559,50.559,0,0,1,3.99-5.632A.707.707,0,0,0,3203.166-1890.877Zm10.369-9.351a.7.7,0,0,0-.978-.179,53.122,53.122,0,0,0-5.524,4.463.692.692,0,0,0-.033.991.683.683,0,0,0,.511.221.749.749,0,0,0,.478-.186,50.1,50.1,0,0,1,5.368-4.341.709.709,0,0,0,.178-.969Zm12.437-6.344a.7.7,0,0,0-.9-.413,60.152,60.152,0,0,0-6.469,2.9.693.693,0,0,0-.289.941.69.69,0,0,0,.622.378.734.734,0,0,0,.323-.079,57.7,57.7,0,0,1,6.313-2.83A.7.7,0,0,0,3225.972-1906.572Zm12.793-3.906a64.035,64.035,0,0,0-6.935,1.376.694.694,0,0,0-.512.848.7.7,0,0,0,.678.527.832.832,0,0,0,.178-.021,67.577,67.577,0,0,1,6.791-1.347.712.712,0,0,0,.6-.791.712.712,0,0,0-.8-.592Zm28.1,1.34c-2.29-.542-4.624-.985-6.958-1.312a.708.708,0,0,0-.79.6.712.712,0,0,0,.6.791c2.278.32,4.579.756,6.824,1.282a.512.512,0,0,0,.155.022.721.721,0,0,0,.69-.543.713.713,0,0,0-.523-.84Zm-13.982-1.981c-2.357-.121-4.757-.129-7.08-.023a.708.708,0,0,0-.667.735.691.691,0,0,0,.734.663c2.278-.1,4.624-.093,6.936.022h.033a.693.693,0,0,0,.7-.664.691.691,0,0,0-.656-.733" transform="translate(-3189.216 1911.216)" fill="#656565"/>
      </g>
      <g id="g554" transform="translate(816.559 87.173)">
        <path id="path556" d="M3684.512-1740.914c-2.318.05-4.635.036-6.965-.028a.7.7,0,0,0-.721.677.7.7,0,0,0,.67.727c1.364.035,2.729.057,4.068.057.991,0,1.982-.014,2.973-.036a.7.7,0,0,0,.695-.712A.711.711,0,0,0,3684.512-1740.914ZM3698.4-1742c-2.252.313-4.583.563-6.926.74a.7.7,0,0,0-.643.749.7.7,0,0,0,.694.649h.052c2.369-.185,4.725-.435,7-.749a.7.7,0,0,0,.6-.79.707.707,0,0,0-.785-.6Zm-27.818.691c-2.278-.171-4.621-.4-6.951-.677a.71.71,0,0,0-.785.613.7.7,0,0,0,.617.776c2.343.286,4.712.514,7,.685h.051a.709.709,0,0,0,.708-.649A.7.7,0,0,0,3670.583-1741.305Zm-13.863-1.64c-2.278-.363-4.583-.784-6.875-1.241a.7.7,0,0,0-.823.55.7.7,0,0,0,.541.826c2.316.457,4.647.876,6.938,1.247a.407.407,0,0,0,.1.008.7.7,0,0,0,.695-.592A.689.689,0,0,0,3656.719-1742.945Zm56.164-1.354a.7.7,0,0,0-.863-.492c-2.2.613-4.466,1.161-6.771,1.632a.7.7,0,0,0-.541.827.7.7,0,0,0,.7.556.4.4,0,0,0,.128-.014c2.33-.471,4.634-1.026,6.861-1.646A.7.7,0,0,0,3712.883-1744.3Zm-69.86-1.383c-2.266-.542-4.544-1.134-6.759-1.753a.691.691,0,0,0-.862.484.683.683,0,0,0,.476.863c2.24.627,4.531,1.219,6.823,1.767a.587.587,0,0,0,.155.014.7.7,0,0,0,.682-.534A.694.694,0,0,0,3643.023-1745.682Zm82.977-3.506a.708.708,0,0,0-.94-.35c-2.073.948-4.235,1.839-6.423,2.63a.711.711,0,0,0-.424.9.7.7,0,0,0,.669.463.673.673,0,0,0,.232-.042c2.227-.806,4.429-1.711,6.539-2.674A.708.708,0,0,0,3726-1749.188Zm-96.429-.258c-4.146-1.34-6.552-2.31-6.579-2.316a.7.7,0,0,0-.913.385.708.708,0,0,0,.385.911c.025.015,2.484,1,6.669,2.353a.884.884,0,0,0,.219.034.716.716,0,0,0,.669-.484A.712.712,0,0,0,3629.571-1749.446Zm107.924-7.619a.685.685,0,0,0-.978-.036,41.794,41.794,0,0,1-5.406,4.249.694.694,0,0,0-.206.968.691.691,0,0,0,.592.314.734.734,0,0,0,.386-.113,42.314,42.314,0,0,0,5.586-4.391A.7.7,0,0,0,3737.5-1757.065Zm8.251-11.247a.705.705,0,0,0-.953.292,42.271,42.271,0,0,1-3.668,5.808.692.692,0,0,0,.128.985.673.673,0,0,0,.425.141.678.678,0,0,0,.554-.278,43.631,43.631,0,0,0,3.81-6.008A.691.691,0,0,0,3745.747-1768.312Zm4.416-13.251a.69.69,0,0,0-.823.55,50.364,50.364,0,0,1-1.816,6.664.718.718,0,0,0,.438.89.841.841,0,0,0,.231.037.676.676,0,0,0,.657-.472,52.716,52.716,0,0,0,1.867-6.85A.692.692,0,0,0,3750.162-1781.563Zm1.712-13.271a.718.718,0,0,0-.734-.679.679.679,0,0,0-.669.721c.013.62.026,1.24.026,1.853,0,1.711-.077,3.415-.206,5.068a.7.7,0,0,0,.643.755H3751a.714.714,0,0,0,.695-.641c.129-1.7.193-3.436.193-5.183,0-.627,0-1.261-.012-1.895Zm8.291-6.545c-1.146.05-2.292.072-3.425.072-1.2,0-2.354-.029-3.527-.079a.7.7,0,0,0-.734.669.7.7,0,0,0,.67.728c1.184.058,2.381.078,3.579.078h.012c1.146,0,2.317-.021,3.476-.064a.7.7,0,0,0,.669-.734A.715.715,0,0,0,3760.165-1801.378Zm13.786-1.639c-2.291.449-4.607.813-6.873,1.084a.694.694,0,0,0-.605.776.7.7,0,0,0,.7.62c.025,0,.051-.008.09-.008,2.291-.278,4.634-.641,6.964-1.1a.7.7,0,0,0,.553-.82A.707.707,0,0,0,3773.951-1803.017ZM3746.3-1802c-2.3-.314-4.6-.735-6.822-1.255a.706.706,0,0,0-.85.52.714.714,0,0,0,.528.842c2.266.534,4.608.962,6.952,1.284.037,0,.063.006.088.006a.708.708,0,0,0,.709-.606A.7.7,0,0,0,3746.3-1802Zm3.785-6.857a.7.7,0,0,0-.837-.528.715.715,0,0,0-.54.834c.514,2.26.927,4.562,1.223,6.843a.692.692,0,0,0,.683.6.358.358,0,0,0,.09-.007.693.693,0,0,0,.605-.784c-.3-2.317-.709-4.661-1.224-6.964Zm33.843,4.127a.714.714,0,0,0-.877-.478c-.771.221-1.543.435-2.315.635a.711.711,0,0,0-.5.855.721.721,0,0,0,.683.528.566.566,0,0,0,.18-.029q1.159-.311,2.355-.641A.72.72,0,0,0,3783.928-1804.728Zm-51.1-.449a62.327,62.327,0,0,1-6.424-2.608.693.693,0,0,0-.927.335.7.7,0,0,0,.335.933,64.367,64.367,0,0,0,6.552,2.666.67.67,0,0,0,.232.042.681.681,0,0,0,.656-.478A.7.7,0,0,0,3732.823-1805.177Zm-12.5-5.909a57.478,57.478,0,0,1-5.65-4,.69.69,0,0,0-.979.1.7.7,0,0,0,.1.984,57.876,57.876,0,0,0,5.78,4.106.721.721,0,0,0,.373.107.7.7,0,0,0,.592-.335A.7.7,0,0,0,3720.323-1811.086Zm27.883-4.59c-.748-2.251-1.6-4.476-2.524-6.608a.707.707,0,0,0-.927-.357.692.692,0,0,0-.36.921c.914,2.088,1.75,4.269,2.471,6.487a.712.712,0,0,0,.67.477.6.6,0,0,0,.219-.035A.713.713,0,0,0,3748.207-1815.676Zm-38.593-4.105a42.554,42.554,0,0,1-4.261-5.4.707.707,0,0,0-.978-.2.71.71,0,0,0-.207.969,42.427,42.427,0,0,0,4.429,5.582.712.712,0,0,0,.5.222.693.693,0,0,0,.49-.193A.687.687,0,0,0,3709.614-1819.781Zm32.877-8.824a59.049,59.049,0,0,0-3.875-5.937.719.719,0,0,0-.991-.143.73.73,0,0,0-.141.984,56.812,56.812,0,0,1,3.8,5.787.693.693,0,0,0,.6.357.706.706,0,0,0,.348-.093A.7.7,0,0,0,3742.491-1828.605Zm-40.292-2.644a18.662,18.662,0,0,1-1.288-6.458l.014-.121a.713.713,0,0,0-.7-.712.691.691,0,0,0-.708.691v.142a19.985,19.985,0,0,0,1.377,6.95.671.671,0,0,0,.656.456.671.671,0,0,0,.231-.042A.691.691,0,0,0,3702.2-1831.25Zm31.77-8.668a39.078,39.078,0,0,0-5.471-4.554.7.7,0,0,0-.978.185.7.7,0,0,0,.18.976,36.772,36.772,0,0,1,5.278,4.383.7.7,0,0,0,.5.207.694.694,0,0,0,.49-.207A.706.706,0,0,0,3733.969-1839.917Zm-25.141-8.31a.7.7,0,0,0-.863-.486,11.408,11.408,0,0,0-6.192,3.9.692.692,0,0,0,.116.984.7.7,0,0,0,.438.143.72.72,0,0,0,.553-.264,10.042,10.042,0,0,1,5.458-3.414A.7.7,0,0,0,3708.828-1848.227Zm13.324.442a25.045,25.045,0,0,0-7-1.54.7.7,0,0,0-.746.649.7.7,0,0,0,.643.748,23.684,23.684,0,0,1,6.617,1.455.61.61,0,0,0,.244.049.7.7,0,0,0,.657-.456.712.712,0,0,0-.412-.9" transform="translate(-3622.031 1849.327)" fill="#656565"/>
      </g>
      <g id="g562" transform="translate(1034.781 408.861)">
        <path id="path564" d="M4013.942-1038.316a.678.678,0,0,0-.936.277c-1.284,2.31-2.232,3.685-2.245,3.7a.7.7,0,0,0,.173.975.694.694,0,0,0,.4.122.7.7,0,0,0,.575-.3c.04-.058,1-1.439,2.312-3.821A.7.7,0,0,0,4013.942-1038.316Zm5.214-12.987a.7.7,0,0,0-.856.484,58.1,58.1,0,0,1-2.286,6.536.7.7,0,0,0,.375.912.653.653,0,0,0,.28.057.7.7,0,0,0,.641-.427,58.067,58.067,0,0,0,2.339-6.7A.709.709,0,0,0,4019.156-1051.3Zm-45.4-6.473a.71.71,0,0,0-.936-.357,20.757,20.757,0,0,1-6.455,1.889.693.693,0,0,0-.642.756.7.7,0,0,0,.7.64h.053a22.28,22.28,0,0,0,6.938-2A.716.716,0,0,0,3973.758-1057.775Zm47.522-6.757a.7.7,0,0,0-.749-.655.715.715,0,0,0-.655.749c.054.747.08,1.517.08,2.281a38.851,38.851,0,0,1-.279,4.583.685.685,0,0,0,.6.778.343.343,0,0,0,.08.006.727.727,0,0,0,.708-.614,38.72,38.72,0,0,0,.294-4.753C4021.361-1062.957,4021.333-1063.755,4021.281-1064.532Zm-60.342,6.052a7.63,7.63,0,0,1-.9-3.942,15.684,15.684,0,0,1,.2-2.422.7.7,0,0,0-.575-.8.691.691,0,0,0-.8.585,16.758,16.758,0,0,0-.228,2.637,9.236,9.236,0,0,0,1.083,4.654.725.725,0,0,0,.614.351.677.677,0,0,0,.348-.1A.714.714,0,0,0,3960.939-1058.481Zm24.276-7.234a.714.714,0,0,0-1,.006,31.749,31.749,0,0,1-5.321,4.291.717.717,0,0,0-.213.971.705.705,0,0,0,.589.319.7.7,0,0,0,.387-.114,33.615,33.615,0,0,0,5.562-4.483A.712.712,0,0,0,3985.215-1065.715Zm6.644-12.153a.707.707,0,0,0-.87.484,26.674,26.674,0,0,1-2.62,6.28.689.689,0,0,0,.241.956.779.779,0,0,0,.36.1.7.7,0,0,0,.6-.349,28.184,28.184,0,0,0,2.768-6.608A.691.691,0,0,0,3991.859-1077.868Zm28.137,6.293a29.4,29.4,0,0,0-2.914-6.535.7.7,0,0,0-.962-.236.687.687,0,0,0-.24.961,28.1,28.1,0,0,1,2.78,6.223.707.707,0,0,0,.669.492.638.638,0,0,0,.2-.028A.7.7,0,0,0,4020-1071.574Zm-54.633-6.785a.689.689,0,0,0-.963.192,40.3,40.3,0,0,0-3.434,6.25.689.689,0,0,0,.36.92.666.666,0,0,0,.282.057.71.71,0,0,0,.642-.421,38.1,38.1,0,0,1,3.314-6.03A.7.7,0,0,0,3965.363-1078.359Zm47.335-5.4a39.085,39.085,0,0,0-5.441-4.605.7.7,0,0,0-.976.164.694.694,0,0,0,.174.976,37.727,37.727,0,0,1,5.227,4.441.717.717,0,0,0,.508.214.729.729,0,0,0,.5-.2A.712.712,0,0,0,4012.7-1083.755Zm-37.643-4.641a.7.7,0,0,0-.976-.142,39.556,39.556,0,0,0-5.28,4.783.7.7,0,0,0,.026.99.725.725,0,0,0,.482.186.7.7,0,0,0,.507-.222,38.27,38.27,0,0,1,5.107-4.612A.7.7,0,0,0,3975.056-1088.4Zm18.22-2.779a.708.708,0,0,0-.775-.621.709.709,0,0,0-.628.777,44.792,44.792,0,0,1,.267,4.733c0,.719-.014,1.446-.054,2.145a.7.7,0,0,0,.655.741h.041a.686.686,0,0,0,.695-.663c.04-.726.067-1.474.067-2.223A47.553,47.553,0,0,0,3993.275-1091.175Zm7.86-.82a25.493,25.493,0,0,0-6.844-2.16.7.7,0,0,0-.8.577.7.7,0,0,0,.574.806,24,24,0,0,1,6.47,2.045.8.8,0,0,0,.308.064.693.693,0,0,0,.629-.4A.7.7,0,0,0,4001.135-1091.995Zm-14.036-2.224a26.3,26.3,0,0,0-6.871,2.032.7.7,0,0,0-.36.927.7.7,0,0,0,.642.413.711.711,0,0,0,.293-.056,24.68,24.68,0,0,1,6.5-1.925.706.706,0,0,0,.6-.791A.708.708,0,0,0,3987.1-1094.219Zm4.946-3.94c-.507-2.189-1.176-4.477-1.965-6.794a.7.7,0,0,0-.882-.443.7.7,0,0,0-.441.892c.775,2.28,1.417,4.518,1.924,6.672a.7.7,0,0,0,.683.535,1.383,1.383,0,0,0,.161-.015.706.706,0,0,0,.521-.848Zm-4.492-13.393c-.9-2.089-1.884-4.241-2.967-6.4a.688.688,0,0,0-.936-.313.706.706,0,0,0-.32.933c1.069,2.139,2.059,4.27,2.939,6.329a.684.684,0,0,0,.629.428.775.775,0,0,0,.281-.058A.7.7,0,0,0,3987.553-1111.553Zm-6.282-12.631c-1.136-2-2.353-4.041-3.609-6.052a.7.7,0,0,0-.963-.22.7.7,0,0,0-.227.969c1.256,1.989,2.459,4.013,3.582,5.994a.7.7,0,0,0,.6.356.755.755,0,0,0,.361-.092A.69.69,0,0,0,3981.271-1124.184Zm-7.5-11.938c-2.446-3.542-4.157-5.695-4.172-5.716a.705.705,0,0,0-.989-.107.7.7,0,0,0-.107.984c.014.021,1.7,2.131,4.117,5.637a.725.725,0,0,0,.589.306.731.731,0,0,0,.4-.127.7.7,0,0,0,.162-.977" transform="translate(-3958.64 1142.1)" fill="#171717"/>
      </g>
      <g id="g566" transform="translate(1202.108 110.152)">
        <path id="path568" d="M4087.314-1553.335a.69.69,0,0,0-.984-.014c-3.191,3.072-5.118,4.783-5.132,4.8a.689.689,0,0,0-.055.991.686.686,0,0,0,.52.235.692.692,0,0,0,.464-.179c.028-.014,1.969-1.746,5.174-4.84A.7.7,0,0,0,4087.314-1553.335Zm9.882-9.979a.7.7,0,0,0-.984.021c-1.63,1.711-3.276,3.4-4.892,5.025a.687.687,0,0,0,0,.991.693.693,0,0,0,.493.2.73.73,0,0,0,.5-.207c1.617-1.632,3.262-3.329,4.907-5.04A.7.7,0,0,0,4097.2-1563.314Zm9.49-10.349a.692.692,0,0,0-.984.064c-1.532,1.732-3.121,3.478-4.7,5.2a.687.687,0,0,0,.042.99.7.7,0,0,0,.479.185.677.677,0,0,0,.506-.228c1.588-1.725,3.177-3.478,4.723-5.217A.7.7,0,0,0,4106.686-1573.664Zm9.1-10.691a.7.7,0,0,0-.984.1c-1.463,1.79-2.981,3.592-4.5,5.367a.714.714,0,0,0,.086.99.675.675,0,0,0,.449.172.707.707,0,0,0,.534-.249c1.519-1.783,3.037-3.6,4.513-5.389A.7.7,0,0,0,4115.783-1584.355Zm8.659-11.048a.7.7,0,0,0-.984.143c-1.391,1.846-2.824,3.713-4.271,5.545a.7.7,0,0,0,.125.984.67.67,0,0,0,.422.149.751.751,0,0,0,.561-.263c1.45-1.846,2.883-3.721,4.29-5.574A.713.713,0,0,0,4124.441-1595.4Zm8.154-11.411a.713.713,0,0,0-.982.178c-1.294,1.911-2.644,3.835-4.007,5.738a.7.7,0,0,0,.153.977.728.728,0,0,0,.408.128.7.7,0,0,0,.576-.292c1.365-1.9,2.729-3.842,4.035-5.759A.7.7,0,0,0,4132.6-1606.814Zm7.564-11.818a.708.708,0,0,0-.971.242c-1.18,1.954-2.431,3.949-3.7,5.931a.693.693,0,0,0,.2.962.725.725,0,0,0,.4.114.68.68,0,0,0,.578-.32c1.277-1.99,2.543-4,3.723-5.967A.7.7,0,0,0,4140.159-1618.632Zm6.846-12.217a.693.693,0,0,0-.942.292c-1.068,2.031-2.193,4.1-3.344,6.136a.705.705,0,0,0,.267.956.733.733,0,0,0,.351.091.7.7,0,0,0,.605-.355c1.153-2.053,2.292-4.135,3.36-6.18A.684.684,0,0,0,4147.005-1630.849Zm6-12.7a.709.709,0,0,0-.927.371c-.9,2.1-1.87,4.248-2.882,6.371a.694.694,0,0,0,.322.934.787.787,0,0,0,.309.065.675.675,0,0,0,.621-.4c1.024-2.138,2.009-4.3,2.923-6.422A.7.7,0,0,0,4153.009-1643.551Zm14.143-4.305a.713.713,0,0,0-.956-.3,21.008,21.008,0,0,1-6.4,2.146.7.7,0,0,0-.576.8.7.7,0,0,0,.69.592.483.483,0,0,0,.111-.009,22.375,22.375,0,0,0,6.819-2.28A.71.71,0,0,0,4167.151-1647.856Zm-14.059,1.667a22,22,0,0,1-6.3-2.445.7.7,0,0,0-.955.264.711.711,0,0,0,.267.955,23.541,23.541,0,0,0,6.706,2.6,1.267,1.267,0,0,0,.14.014.7.7,0,0,0,.689-.557A.711.711,0,0,0,4153.092-1646.188Zm4.808-10.491a.692.692,0,0,0-.885.448c-.7,2.16-1.477,4.369-2.319,6.579a.7.7,0,0,0,.407.906.817.817,0,0,0,.253.042.681.681,0,0,0,.646-.448c.858-2.231,1.632-4.469,2.349-6.65a.7.7,0,0,0-.451-.878Zm19.667-.4a.7.7,0,0,0-.984.1,39.626,39.626,0,0,1-4.766,4.954.7.7,0,0,0-.069.99.721.721,0,0,0,.534.243.748.748,0,0,0,.463-.171,43.559,43.559,0,0,0,4.935-5.132A.7.7,0,0,0,4177.568-1657.079Zm-36.283,4.4a46.238,46.238,0,0,1-4.711-5.024.716.716,0,0,0-1-.1.708.708,0,0,0-.1.984,47.524,47.524,0,0,0,4.864,5.173.693.693,0,0,0,.477.186.729.729,0,0,0,.521-.228A.7.7,0,0,0,4141.285-1652.682Zm43.538-16.358a.7.7,0,0,0-.928.329,64.612,64.612,0,0,1-3.317,6.086.709.709,0,0,0,.238.97.672.672,0,0,0,.365.1.7.7,0,0,0,.593-.327,65.642,65.642,0,0,0,3.388-6.222A.7.7,0,0,0,4184.823-1669.04Zm-23.421-1.2a.707.707,0,0,0-.829.549c-.449,2.224-.985,4.5-1.589,6.779a.7.7,0,0,0,.505.855.715.715,0,0,0,.168.028.692.692,0,0,0,.675-.527c.619-2.294,1.167-4.6,1.618-6.856a.709.709,0,0,0-.549-.826Zm-28.835,6.928A25.52,25.52,0,0,1,4130-1669.6a.705.705,0,0,0-.856-.506.713.713,0,0,0-.506.855,27.07,27.07,0,0,0,2.727,6.644.7.7,0,0,0,.6.348.713.713,0,0,0,.351-.093.7.7,0,0,0,.253-.962Zm56.924-18.917a.7.7,0,0,0-.844.527c-.155.692-.337,1.382-.535,2.045-.478,1.54-.984,3.072-1.532,4.555a.709.709,0,0,0,.421.9.715.715,0,0,0,.24.042.725.725,0,0,0,.661-.455c.549-1.5,1.067-3.066,1.546-4.634.212-.692.393-1.419.562-2.138A.707.707,0,0,0,4189.491-1682.232Zm-59.89-1.739a.709.709,0,0,0-.855.506,30.986,30.986,0,0,0-.958,7.091.715.715,0,0,0,.7.713h0a.7.7,0,0,0,.7-.691,29,29,0,0,1,.914-6.765.7.7,0,0,0-.507-.855Zm33.559-.164a.672.672,0,0,0-.732.664c-.126,2.152-.365,4.483-.688,6.914a.7.7,0,0,0,.59.79c.028,0,.07.007.1.007a.714.714,0,0,0,.7-.606c.336-2.473.561-4.832.688-7.028A.694.694,0,0,0,4163.16-1684.136Zm27.314-11.439a.69.69,0,0,0-.786-.6.707.707,0,0,0-.606.783,44.176,44.176,0,0,1,.409,5.853c0,.342-.014.685-.014,1.026a.692.692,0,0,0,.674.72h.014a.71.71,0,0,0,.7-.685c.014-.349.014-.7.014-1.062A47.187,47.187,0,0,0,4190.475-1695.575Zm-54.575-.821a.711.711,0,0,0-.983.144,38.676,38.676,0,0,0-3.713,6.087.722.722,0,0,0,.338.94.638.638,0,0,0,.3.072.71.71,0,0,0,.633-.4,36.981,36.981,0,0,1,3.57-5.86A.7.7,0,0,0,4135.9-1696.4Zm26.823-1.14a.7.7,0,0,0-.871-.476.7.7,0,0,0-.479.861,31.507,31.507,0,0,1,1.068,6.758.708.708,0,0,0,.7.655h.041a.694.694,0,0,0,.647-.741A33.484,33.484,0,0,0,4162.723-1697.536Zm-16.111-7.69a.688.688,0,0,0-.927-.329,26.44,26.44,0,0,0-5.945,4.035.686.686,0,0,0-.057.991.7.7,0,0,0,.52.235.659.659,0,0,0,.462-.179,24.577,24.577,0,0,1,5.625-3.82A.694.694,0,0,0,4146.612-1705.227Zm42.471,2.694a67.3,67.3,0,0,0-2.193-6.728.708.708,0,0,0-.914-.4.688.688,0,0,0-.393.906,64.62,64.62,0,0,1,2.15,6.587.689.689,0,0,0,.675.52.794.794,0,0,0,.183-.021.7.7,0,0,0,.492-.863Zm-29.677-1.453a9.4,9.4,0,0,0-6.622-3.178.681.681,0,0,0-.744.655.7.7,0,0,0,.66.741,8.053,8.053,0,0,1,5.666,2.723.674.674,0,0,0,.52.228.66.66,0,0,0,.463-.177A.7.7,0,0,0,4159.405-1703.986Zm24.588-11.739c-1.042-2.075-2.208-4.141-3.473-6.152a.7.7,0,0,0-.97-.221.694.694,0,0,0-.211.962c1.224,1.975,2.376,4.007,3.416,6.045a.687.687,0,0,0,.62.386.674.674,0,0,0,.31-.072A.7.7,0,0,0,4183.994-1715.725Zm-7.479-11.975c-1.407-1.867-2.91-3.707-4.485-5.46a.69.69,0,0,0-.983-.049.692.692,0,0,0-.07.983c1.546,1.725,3.037,3.529,4.427,5.367a.658.658,0,0,0,.548.279.7.7,0,0,0,.422-.135A.689.689,0,0,0,4176.514-1727.7Zm-9.419-10.52c-1.714-1.611-3.5-3.167-5.341-4.62a.7.7,0,0,0-.985.114.71.71,0,0,0,.112.984c1.813,1.433,3.572,2.958,5.259,4.54a.656.656,0,0,0,.477.193.66.66,0,0,0,.506-.221A.7.7,0,0,0,4167.095-1738.219Zm-11.064-8.768c-1.968-1.3-4-2.523-6.059-3.627a.706.706,0,0,0-.955.284.694.694,0,0,0,.295.948c2.009,1.089,4.021,2.287,5.947,3.564a.717.717,0,0,0,.394.114.668.668,0,0,0,.576-.313A.69.69,0,0,0,4156.031-1746.988Zm-12.427-6.693c-2.165-.927-4.4-1.753-6.621-2.466a.71.71,0,0,0-.886.45.7.7,0,0,0,.464.883c2.179.7,4.358,1.511,6.5,2.423a.7.7,0,0,0,.267.058.7.7,0,0,0,.646-.427A.7.7,0,0,0,4143.6-1753.681Zm-13.454-4.3c-2.278-.5-4.625-.9-6.959-1.184a.693.693,0,0,0-.771.606.687.687,0,0,0,.6.784c2.291.278,4.583.671,6.831,1.163a.615.615,0,0,0,.155.021.692.692,0,0,0,.674-.557A.7.7,0,0,0,4130.15-1757.986Zm-14-1.718c-2.32-.07-4.71-.028-7.058.114a.716.716,0,0,0-.674.742.707.707,0,0,0,.7.655h.042c2.321-.142,4.668-.178,6.946-.107a.694.694,0,0,0,.717-.685.7.7,0,0,0-.674-.72" transform="translate(-4080.958 1759.737)" fill="#66192d"/>
      </g>
    </g>
  </g>
  <g id="Grupo_784" data-name="Grupo 784" transform="translate(-286 -127.69)">
    <text id="Ramon_Vasconcelos" data-name="Ramon Vasconcelos" transform="translate(711 580)" fill="#786ab5" font-size="60" font-family="SegoeUI-Bold, Segoe UI" font-weight="700"><tspan x="0" y="0">Ramon Vasconcelos</tspan></text>
    <text id="Desenvolvedor_Fullstack" data-name="Desenvolvedor Fullstack" transform="translate(749 644)" fill="#786ab5" font-size="45" font-family="SegoeUI, Segoe UI"><tspan x="0" y="0">Desenvolvedor Fullstack</tspan></text>
  </g>
</svg>
